<svg width="173" height="34" viewBox="0 0 173 34" fill="none" xmlns="http://www.w3.org/2000/svg">
<path d="M52.0832 9.0675V16.6723H43.1758V9.0675H40.8023V27.2946H43.1758V18.8131H52.0832V27.2946H54.4566V9.0675H52.0832ZM63.4606 13.9403C59.7969 13.9403 56.9267 16.4752 56.9267 20.8587C56.9267 24.95 59.7003 27.5869 63.2605 27.5869C66.5241 27.5869 69.8911 25.5412 69.8911 20.6684C69.898 16.6723 67.3244 13.9403 63.4606 13.9403ZM63.4606 25.8335C61.0872 25.8335 59.4037 23.5908 59.4037 20.7636C59.4037 18.3238 60.687 15.6937 63.5572 15.6937C66.4275 15.6937 67.5176 18.5209 67.5176 20.7636C67.5245 23.6859 65.7375 25.8335 63.4606 25.8335ZM86.9193 14.0354C85.629 14.0354 84.739 14.3277 83.9524 14.9121C83.3591 15.2995 82.8623 15.7888 82.469 16.5704C81.8757 15.0141 80.4888 13.9403 78.7087 13.9403C76.5285 13.9403 75.3417 15.1092 74.5552 16.3801H74.3551L74.2585 14.2325H72.1817C72.2783 15.3063 72.2783 16.3801 72.2783 17.7393V27.2946H74.6518V19.3976C74.6518 19.0102 74.7484 18.616 74.8519 18.2286C75.2451 17.0597 76.3353 15.8908 77.8187 15.8908C79.7023 15.8908 80.5923 17.4539 80.5923 19.4995V27.3014H82.9658V19.2073C82.9658 18.8199 83.0624 18.3306 83.1659 18.0383C83.5592 16.8694 84.6493 15.8908 86.0361 15.8908C88.0163 15.8908 88.9064 17.3519 88.9064 19.8869V27.2946H91.2798V19.6898C91.2729 15.2112 88.6994 14.0354 86.9193 14.0354ZM105.624 19.8869C105.624 17.4471 104.437 13.6481 99.9802 13.6481C96.0198 13.6481 93.6464 16.8626 93.6464 20.8587C93.6464 24.8548 96.1233 27.5869 100.277 27.5869C102.354 27.5869 103.837 27.0975 104.727 26.7102L104.334 24.9568C103.347 25.3442 102.354 25.6364 100.574 25.6364C98.1035 25.6364 96.0198 24.3655 95.9233 21.0558H105.521C105.521 20.7636 105.624 20.3762 105.624 19.8869ZM96.0198 19.3024C96.2199 17.6442 97.3032 15.4015 99.7801 15.4015C102.45 15.4015 103.147 17.7393 103.147 19.3024H96.0198Z" fill="#3E3D53"/>
<path d="M116.011 8.77441H113.044L106.613 27.2938H109.09L111.07 21.4423H117.901L119.881 27.2938H122.455L116.011 8.77441ZM111.353 19.4986L113.237 14.1365C113.63 13.0627 113.927 11.8938 114.224 10.82H114.32C114.617 11.8938 114.913 13.0627 115.307 14.2317L117.183 19.5938C117.197 19.5938 111.553 19.5938 111.353 19.4986ZM139.366 13.9394L137.489 20.6676C136.992 22.2239 136.599 23.5899 136.399 24.9559H136.302C136.006 23.5899 135.612 22.1287 135.116 20.5724L133.039 13.9462H130.962L128.782 20.6744C128.388 22.1355 127.892 23.5015 127.595 24.8676H127.498C127.298 23.5015 126.905 22.1355 126.505 20.6744L124.725 13.9462H122.248L126.305 27.3006H128.582L130.762 20.9666C131.155 19.6006 131.652 18.1394 131.949 16.5831C132.245 18.1462 132.639 19.5054 133.135 20.9666L135.212 27.3006H137.489L141.843 13.9462H139.366V13.9394ZM153.02 24.0792L152.923 19.1045C152.923 16.3724 151.937 13.6472 147.776 13.6472C146.093 13.6472 144.409 14.1365 143.326 14.8161L143.919 16.3792C144.906 15.7948 146.196 15.4006 147.48 15.4006C150.253 15.4006 150.55 17.4462 150.55 18.52V18.8122C145.306 18.8122 142.436 20.5656 142.436 23.787C142.436 25.6423 143.823 27.586 146.59 27.586C148.57 27.586 149.957 26.7093 150.743 25.6355L150.943 27.2938H153.22C153.117 26.3219 153.02 25.2481 153.02 24.0792ZM150.543 20.4705V22.8083C150.543 23.1006 150.543 23.2977 150.446 23.5899C150.053 24.7588 148.963 25.8326 147.183 25.8326C145.996 25.8326 144.906 25.0511 144.906 23.4947C144.906 20.8647 147.976 20.3753 150.647 20.4705H150.543ZM164.598 14.0346L161.927 21.8365C161.534 22.7132 161.237 23.787 161.037 24.5685H160.941C160.644 23.787 160.347 22.72 160.051 21.8365L157.084 13.9394H154.414L159.464 25.8326C159.561 26.22 159.664 26.4171 159.664 26.5122C159.664 26.6074 159.568 26.8044 159.464 27.0967C158.871 28.3607 158.077 29.3394 157.387 29.8287C156.594 30.4132 155.807 30.8005 155.207 30.9976L155.801 33.0433C156.49 32.9481 157.677 32.5539 158.871 31.4869C160.748 29.8287 161.941 27.4908 163.521 23.4947L167.185 14.0414H164.598V14.0346ZM171.428 15.3055C171.628 15.3055 171.821 15.1084 171.821 14.9181C171.821 14.7278 171.725 14.6258 171.621 14.5307C171.525 14.5307 171.325 14.4356 171.028 14.4356C170.731 14.4356 170.531 14.5307 170.338 14.5307V16.2841H170.731V15.4074H170.931C171.228 15.4074 171.325 15.5025 171.325 15.6996C171.325 15.8967 171.325 15.9919 171.421 16.087H171.814C171.814 16.087 171.814 15.9919 171.718 15.6996C171.725 15.5025 171.621 15.3055 171.428 15.3055ZM170.931 15.3055H170.731V14.721H170.931C171.228 14.721 171.325 14.8161 171.325 15.0132C171.325 15.2103 171.131 15.3055 170.931 15.3055ZM171.428 15.3055C171.628 15.3055 171.821 15.1084 171.821 14.9181C171.821 14.7278 171.725 14.6258 171.621 14.5307C171.525 14.5307 171.325 14.4356 171.028 14.4356C170.731 14.4356 170.531 14.5307 170.338 14.5307V16.2841H170.731V15.4074H170.931C171.228 15.4074 171.325 15.5025 171.325 15.6996C171.325 15.8967 171.325 15.9919 171.421 16.087H171.814C171.814 16.087 171.814 15.9919 171.718 15.6996C171.725 15.5025 171.621 15.3055 171.428 15.3055ZM170.931 15.3055H170.731V14.721H170.931C171.228 14.721 171.325 14.8161 171.325 15.0132C171.325 15.2103 171.131 15.3055 170.931 15.3055ZM171.428 15.3055C171.628 15.3055 171.821 15.1084 171.821 14.9181C171.821 14.7278 171.725 14.6258 171.621 14.5307C171.525 14.5307 171.325 14.4356 171.028 14.4356C170.731 14.4356 170.531 14.5307 170.338 14.5307V16.2841H170.731V15.4074H170.931C171.228 15.4074 171.325 15.5025 171.325 15.6996C171.325 15.8967 171.325 15.9919 171.421 16.087H171.814C171.814 16.087 171.814 15.9919 171.718 15.6996C171.725 15.5025 171.621 15.3055 171.428 15.3055ZM170.931 15.3055H170.731V14.721H170.931C171.228 14.721 171.325 14.8161 171.325 15.0132C171.325 15.2103 171.131 15.3055 170.931 15.3055ZM171.428 15.3055C171.628 15.3055 171.821 15.1084 171.821 14.9181C171.821 14.7278 171.725 14.6258 171.621 14.5307C171.525 14.5307 171.325 14.4356 171.028 14.4356C170.731 14.4356 170.531 14.5307 170.338 14.5307V16.2841H170.731V15.4074H170.931C171.228 15.4074 171.325 15.5025 171.325 15.6996C171.325 15.8967 171.325 15.9919 171.421 16.087H171.814C171.814 16.087 171.814 15.9919 171.718 15.6996C171.725 15.5025 171.621 15.3055 171.428 15.3055ZM170.931 15.3055H170.731V14.721H170.931C171.228 14.721 171.325 14.8161 171.325 15.0132C171.325 15.2103 171.131 15.3055 170.931 15.3055ZM171.428 15.3055C171.628 15.3055 171.821 15.1084 171.821 14.9181C171.821 14.7278 171.725 14.6258 171.621 14.5307C171.525 14.5307 171.325 14.4356 171.028 14.4356C170.731 14.4356 170.531 14.5307 170.338 14.5307V16.2841H170.731V15.4074H170.931C171.228 15.4074 171.325 15.5025 171.325 15.6996C171.325 15.8967 171.325 15.9919 171.421 16.087H171.814C171.814 16.087 171.814 15.9919 171.718 15.6996C171.725 15.5025 171.621 15.3055 171.428 15.3055ZM170.931 15.3055H170.731V14.721H170.931C171.228 14.721 171.325 14.8161 171.325 15.0132C171.325 15.2103 171.131 15.3055 170.931 15.3055ZM171.428 15.3055C171.628 15.3055 171.821 15.1084 171.821 14.9181C171.821 14.7278 171.725 14.6258 171.621 14.5307C171.525 14.5307 171.325 14.4356 171.028 14.4356C170.731 14.4356 170.531 14.5307 170.338 14.5307V16.2841H170.731V15.4074H170.931C171.228 15.4074 171.325 15.5025 171.325 15.6996C171.325 15.8967 171.325 15.9919 171.421 16.087H171.814C171.814 16.087 171.814 15.9919 171.718 15.6996C171.725 15.5025 171.621 15.3055 171.428 15.3055ZM170.931 15.3055H170.731V14.721H170.931C171.228 14.721 171.325 14.8161 171.325 15.0132C171.325 15.2103 171.131 15.3055 170.931 15.3055ZM171.428 15.3055C171.628 15.3055 171.821 15.1084 171.821 14.9181C171.821 14.7278 171.725 14.6258 171.621 14.5307C171.525 14.5307 171.325 14.4356 171.028 14.4356C170.731 14.4356 170.531 14.5307 170.338 14.5307V16.2841H170.731V15.4074H170.931C171.228 15.4074 171.325 15.5025 171.325 15.6996C171.325 15.8967 171.325 15.9919 171.421 16.087H171.814C171.814 16.087 171.814 15.9919 171.718 15.6996C171.725 15.5025 171.621 15.3055 171.428 15.3055ZM170.931 15.3055H170.731V14.721H170.931C171.228 14.721 171.325 14.8161 171.325 15.0132C171.325 15.2103 171.131 15.3055 170.931 15.3055ZM171.428 15.3055C171.628 15.3055 171.821 15.1084 171.821 14.9181C171.821 14.7278 171.725 14.6258 171.621 14.5307C171.525 14.5307 171.325 14.4356 171.028 14.4356C170.731 14.4356 170.531 14.5307 170.338 14.5307V16.2841H170.731V15.4074H170.931C171.228 15.4074 171.325 15.5025 171.325 15.6996C171.325 15.8967 171.325 15.9919 171.421 16.087H171.814C171.814 16.087 171.814 15.9919 171.718 15.6996C171.725 15.5025 171.621 15.3055 171.428 15.3055ZM170.931 15.3055H170.731V14.721H170.931C171.228 14.721 171.325 14.8161 171.325 15.0132C171.325 15.2103 171.131 15.3055 170.931 15.3055ZM171.428 15.3055C171.628 15.3055 171.821 15.1084 171.821 14.9181C171.821 14.7278 171.725 14.6258 171.621 14.5307C171.525 14.5307 171.325 14.4356 171.028 14.4356C170.731 14.4356 170.531 14.5307 170.338 14.5307V16.2841H170.731V15.4074H170.931C171.228 15.4074 171.325 15.5025 171.325 15.6996C171.325 15.8967 171.325 15.9919 171.421 16.087H171.814C171.814 16.087 171.814 15.9919 171.718 15.6996C171.725 15.5025 171.621 15.3055 171.428 15.3055ZM170.931 15.3055H170.731V14.721H170.931C171.228 14.721 171.325 14.8161 171.325 15.0132C171.325 15.2103 171.131 15.3055 170.931 15.3055ZM171.428 15.3055C171.628 15.3055 171.821 15.1084 171.821 14.9181C171.821 14.7278 171.725 14.6258 171.621 14.5307C171.525 14.5307 171.325 14.4356 171.028 14.4356C170.731 14.4356 170.531 14.5307 170.338 14.5307V16.2841H170.731V15.4074H170.931C171.228 15.4074 171.325 15.5025 171.325 15.6996C171.325 15.8967 171.325 15.9919 171.421 16.087H171.814C171.814 16.087 171.814 15.9919 171.718 15.6996C171.725 15.5025 171.621 15.3055 171.428 15.3055ZM170.931 15.3055H170.731V14.721H170.931C171.228 14.721 171.325 14.8161 171.325 15.0132C171.325 15.2103 171.131 15.3055 170.931 15.3055ZM171.131 13.6472C170.041 13.6472 169.248 14.4288 169.248 15.4006C169.248 16.3792 170.041 17.154 171.028 17.154C172.021 17.154 172.808 16.3724 172.808 15.4006C172.815 14.4288 172.021 13.6472 171.131 13.6472ZM171.028 16.7666C170.234 16.7666 169.641 16.1822 169.641 15.4006C169.641 14.6191 170.234 14.0346 171.028 14.0346C171.821 14.0346 172.415 14.6191 172.415 15.4006C172.415 16.1822 171.821 16.7666 171.028 16.7666ZM171.821 14.9181C171.821 14.721 171.725 14.6258 171.621 14.5307C171.525 14.5307 171.325 14.4356 171.028 14.4356C170.731 14.4356 170.531 14.5307 170.338 14.5307V16.2841H170.731V15.4074H170.931C171.228 15.4074 171.325 15.5025 171.325 15.6996C171.325 15.8967 171.325 15.9919 171.421 16.087H171.814C171.814 16.087 171.814 15.9919 171.718 15.6996C171.718 15.5025 171.621 15.3123 171.421 15.3123C171.621 15.3055 171.821 15.1084 171.821 14.9181ZM170.931 15.3055H170.731V14.721H170.931C171.228 14.721 171.325 14.8161 171.325 15.0132C171.325 15.2103 171.131 15.3055 170.931 15.3055ZM171.428 15.3055C171.628 15.3055 171.821 15.1084 171.821 14.9181C171.821 14.7278 171.725 14.6258 171.621 14.5307C171.525 14.5307 171.325 14.4356 171.028 14.4356C170.731 14.4356 170.531 14.5307 170.338 14.5307V16.2841H170.731V15.4074H170.931C171.228 15.4074 171.325 15.5025 171.325 15.6996C171.325 15.8967 171.325 15.9919 171.421 16.087H171.814C171.814 16.087 171.814 15.9919 171.718 15.6996C171.725 15.5025 171.621 15.3055 171.428 15.3055ZM170.931 15.3055H170.731V14.721H170.931C171.228 14.721 171.325 14.8161 171.325 15.0132C171.325 15.2103 171.131 15.3055 170.931 15.3055ZM171.428 15.3055C171.628 15.3055 171.821 15.1084 171.821 14.9181C171.821 14.7278 171.725 14.6258 171.621 14.5307C171.525 14.5307 171.325 14.4356 171.028 14.4356C170.731 14.4356 170.531 14.5307 170.338 14.5307V16.2841H170.731V15.4074H170.931C171.228 15.4074 171.325 15.5025 171.325 15.6996C171.325 15.8967 171.325 15.9919 171.421 16.087H171.814C171.814 16.087 171.814 15.9919 171.718 15.6996C171.725 15.5025 171.621 15.3055 171.428 15.3055ZM170.931 15.3055H170.731V14.721H170.931C171.228 14.721 171.325 14.8161 171.325 15.0132C171.325 15.2103 171.131 15.3055 170.931 15.3055ZM171.428 15.3055C171.628 15.3055 171.821 15.1084 171.821 14.9181C171.821 14.7278 171.725 14.6258 171.621 14.5307C171.525 14.5307 171.325 14.4356 171.028 14.4356C170.731 14.4356 170.531 14.5307 170.338 14.5307V16.2841H170.731V15.4074H170.931C171.228 15.4074 171.325 15.5025 171.325 15.6996C171.325 15.8967 171.325 15.9919 171.421 16.087H171.814C171.814 16.087 171.814 15.9919 171.718 15.6996C171.725 15.5025 171.621 15.3055 171.428 15.3055ZM170.931 15.3055H170.731V14.721H170.931C171.228 14.721 171.325 14.8161 171.325 15.0132C171.325 15.2103 171.131 15.3055 170.931 15.3055ZM171.428 15.3055C171.628 15.3055 171.821 15.1084 171.821 14.9181C171.821 14.7278 171.725 14.6258 171.621 14.5307C171.525 14.5307 171.325 14.4356 171.028 14.4356C170.731 14.4356 170.531 14.5307 170.338 14.5307V16.2841H170.731V15.4074H170.931C171.228 15.4074 171.325 15.5025 171.325 15.6996C171.325 15.8967 171.325 15.9919 171.421 16.087H171.814C171.814 16.087 171.814 15.9919 171.718 15.6996C171.725 15.5025 171.621 15.3055 171.428 15.3055ZM170.931 15.3055H170.731V14.721H170.931C171.228 14.721 171.325 14.8161 171.325 15.0132C171.325 15.2103 171.131 15.3055 170.931 15.3055ZM171.428 15.3055C171.628 15.3055 171.821 15.1084 171.821 14.9181C171.821 14.7278 171.725 14.6258 171.621 14.5307C171.525 14.5307 171.325 14.4356 171.028 14.4356C170.731 14.4356 170.531 14.5307 170.338 14.5307V16.2841H170.731V15.4074H170.931C171.228 15.4074 171.325 15.5025 171.325 15.6996C171.325 15.8967 171.325 15.9919 171.421 16.087H171.814C171.814 16.087 171.814 15.9919 171.718 15.6996C171.725 15.5025 171.621 15.3055 171.428 15.3055ZM170.931 15.3055H170.731V14.721H170.931C171.228 14.721 171.325 14.8161 171.325 15.0132C171.325 15.2103 171.131 15.3055 170.931 15.3055ZM171.428 15.3055C171.628 15.3055 171.821 15.1084 171.821 14.9181C171.821 14.7278 171.725 14.6258 171.621 14.5307C171.525 14.5307 171.325 14.4356 171.028 14.4356C170.731 14.4356 170.531 14.5307 170.338 14.5307V16.2841H170.731V15.4074H170.931C171.228 15.4074 171.325 15.5025 171.325 15.6996C171.325 15.8967 171.325 15.9919 171.421 16.087H171.814C171.814 16.087 171.814 15.9919 171.718 15.6996C171.725 15.5025 171.621 15.3055 171.428 15.3055ZM170.931 15.3055H170.731V14.721H170.931C171.228 14.721 171.325 14.8161 171.325 15.0132C171.325 15.2103 171.131 15.3055 170.931 15.3055ZM171.428 15.3055C171.628 15.3055 171.821 15.1084 171.821 14.9181C171.821 14.7278 171.725 14.6258 171.621 14.5307C171.525 14.5307 171.325 14.4356 171.028 14.4356C170.731 14.4356 170.531 14.5307 170.338 14.5307V16.2841H170.731V15.4074H170.931C171.228 15.4074 171.325 15.5025 171.325 15.6996C171.325 15.8967 171.325 15.9919 171.421 16.087H171.814C171.814 16.087 171.814 15.9919 171.718 15.6996C171.725 15.5025 171.621 15.3055 171.428 15.3055ZM170.931 15.3055H170.731V14.721H170.931C171.228 14.721 171.325 14.8161 171.325 15.0132C171.325 15.2103 171.131 15.3055 170.931 15.3055ZM171.428 15.3055C171.628 15.3055 171.821 15.1084 171.821 14.9181C171.821 14.7278 171.725 14.6258 171.621 14.5307C171.525 14.5307 171.325 14.4356 171.028 14.4356C170.731 14.4356 170.531 14.5307 170.338 14.5307V16.2841H170.731V15.4074H170.931C171.228 15.4074 171.325 15.5025 171.325 15.6996C171.325 15.8967 171.325 15.9919 171.421 16.087H171.814C171.814 16.087 171.814 15.9919 171.718 15.6996C171.725 15.5025 171.621 15.3055 171.428 15.3055ZM170.931 15.3055H170.731V14.721H170.931C171.228 14.721 171.325 14.8161 171.325 15.0132C171.325 15.2103 171.131 15.3055 170.931 15.3055ZM171.428 15.3055C171.628 15.3055 171.821 15.1084 171.821 14.9181C171.821 14.7278 171.725 14.6258 171.621 14.5307C171.525 14.5307 171.325 14.4356 171.028 14.4356C170.731 14.4356 170.531 14.5307 170.338 14.5307V16.2841H170.731V15.4074H170.931C171.228 15.4074 171.325 15.5025 171.325 15.6996C171.325 15.8967 171.325 15.9919 171.421 16.087H171.814C171.814 16.087 171.814 15.9919 171.718 15.6996C171.725 15.5025 171.621 15.3055 171.428 15.3055ZM170.931 15.3055H170.731V14.721H170.931C171.228 14.721 171.325 14.8161 171.325 15.0132C171.325 15.2103 171.131 15.3055 170.931 15.3055ZM171.428 15.3055C171.628 15.3055 171.821 15.1084 171.821 14.9181C171.821 14.7278 171.725 14.6258 171.621 14.5307C171.525 14.5307 171.325 14.4356 171.028 14.4356C170.731 14.4356 170.531 14.5307 170.338 14.5307V16.2841H170.731V15.4074H170.931C171.228 15.4074 171.325 15.5025 171.325 15.6996C171.325 15.8967 171.325 15.9919 171.421 16.087H171.814C171.814 16.087 171.814 15.9919 171.718 15.6996C171.725 15.5025 171.621 15.3055 171.428 15.3055ZM170.931 15.3055H170.731V14.721H170.931C171.228 14.721 171.325 14.8161 171.325 15.0132C171.325 15.2103 171.131 15.3055 170.931 15.3055Z" fill="#3E3D53"/>
<path d="M9.9208 18.1456C10.5418 18.764 11.2386 19.0835 12.0114 19.1038C11.2455 19.0767 10.4797 18.6961 9.9208 18.1456ZM11.4387 11.5262C10.797 12.0495 10.39 13.1709 10.4038 14.4077C10.4107 13.1029 10.8867 11.9476 11.6043 11.499C11.5491 11.5058 11.4939 11.5126 11.4387 11.5262ZM11.8458 17.9417C10.6177 17.9281 9.52062 16.5961 9.42403 14.8155C9.41713 14.7475 9.41713 14.6796 9.41713 14.6116C9.41713 14.7136 9.41713 14.8155 9.42403 14.9175C9.52062 16.6708 10.6108 18.132 11.9976 18.0369C11.9493 18.0029 11.8941 17.9757 11.8458 17.9417ZM11.9838 10.3369C12.7358 10.3641 13.481 10.7311 14.0399 11.2612C13.4258 10.6631 12.7427 10.3573 11.9838 10.3369ZM14.2744 11.499C14.9644 12.2806 15.3646 13.3476 15.4612 14.5233C15.3646 13.2592 14.9644 12.1854 14.2744 11.499ZM9.9208 18.1456C10.5418 18.764 11.2386 19.0835 12.0114 19.1038C11.2455 19.0767 10.4797 18.6961 9.9208 18.1456ZM11.4387 11.5262C10.797 12.0495 10.39 13.1709 10.4038 14.4077C10.4107 13.1029 10.8867 11.9476 11.6043 11.499C11.5491 11.5058 11.4939 11.5126 11.4387 11.5262ZM11.8458 17.9417C10.6177 17.9281 9.52062 16.5961 9.42403 14.8155C9.41713 14.7475 9.41713 14.6796 9.41713 14.6116C9.41713 14.7136 9.41713 14.8155 9.42403 14.9175C9.52062 16.6708 10.6108 18.132 11.9976 18.0369C11.9493 18.0029 11.8941 17.9757 11.8458 17.9417ZM11.9838 10.3369C12.7358 10.3641 13.481 10.7311 14.0399 11.2612C13.4258 10.6631 12.7427 10.3573 11.9838 10.3369ZM14.2744 11.499C14.9644 12.2806 15.3646 13.3476 15.4612 14.5233C15.3646 13.2592 14.9644 12.1854 14.2744 11.499ZM9.9208 18.1456C10.5418 18.764 11.2386 19.0835 12.0114 19.1038C11.2455 19.0767 10.4797 18.6961 9.9208 18.1456ZM11.4387 11.5262C10.797 12.0495 10.39 13.1709 10.4038 14.4077C10.4107 13.1029 10.8867 11.9476 11.6043 11.499C11.5491 11.5058 11.4939 11.5126 11.4387 11.5262ZM11.8458 17.9417C10.6177 17.9281 9.52062 16.5961 9.42403 14.8155C9.41713 14.7475 9.41713 14.6796 9.41713 14.6116C9.41713 14.7136 9.41713 14.8155 9.42403 14.9175C9.52062 16.6708 10.6108 18.132 11.9976 18.0369C11.9493 18.0029 11.8941 17.9757 11.8458 17.9417ZM11.9838 10.3369C12.7358 10.3641 13.481 10.7311 14.0399 11.2612C13.4258 10.6631 12.7427 10.3573 11.9838 10.3369ZM14.2744 11.499C14.9644 12.2806 15.3646 13.3476 15.4612 14.5233C15.3646 13.2592 14.9644 12.1854 14.2744 11.499ZM9.9208 18.1456C10.5418 18.764 11.2386 19.0835 12.0114 19.1038C11.2455 19.0767 10.4797 18.6961 9.9208 18.1456ZM11.4387 11.5262C10.797 12.0495 10.39 13.1709 10.4038 14.4077C10.4107 13.1029 10.8867 11.9476 11.6043 11.499C11.5491 11.5058 11.4939 11.5126 11.4387 11.5262ZM11.8458 17.9417C10.6177 17.9281 9.52062 16.5961 9.42403 14.8155C9.41713 14.7475 9.41713 14.6796 9.41713 14.6116C9.41713 14.7136 9.41713 14.8155 9.42403 14.9175C9.52062 16.6708 10.6108 18.132 11.9976 18.0369C11.9493 18.0029 11.8941 17.9757 11.8458 17.9417ZM11.9838 10.3369C12.7358 10.3641 13.481 10.7311 14.0399 11.2612C13.4258 10.6631 12.7427 10.3573 11.9838 10.3369ZM14.2744 11.499C14.9644 12.2806 15.3646 13.3476 15.4612 14.5233C15.3646 13.2592 14.9644 12.1854 14.2744 11.499ZM9.9208 18.1456C10.5418 18.764 11.2386 19.0835 12.0114 19.1038C11.2455 19.0767 10.4797 18.6961 9.9208 18.1456ZM11.4387 11.5262C10.797 12.0495 10.39 13.1709 10.4038 14.4077C10.4107 13.1029 10.8867 11.9476 11.6043 11.499C11.5491 11.5058 11.4939 11.5126 11.4387 11.5262ZM11.8458 17.9417C10.6177 17.9281 9.52062 16.5961 9.42403 14.8155C9.41713 14.7475 9.41713 14.6796 9.41713 14.6116C9.41713 14.7136 9.41713 14.8155 9.42403 14.9175C9.52062 16.6708 10.6108 18.132 11.9976 18.0369C11.9493 18.0029 11.8941 17.9757 11.8458 17.9417ZM11.9838 10.3369C12.7358 10.3641 13.481 10.7311 14.0399 11.2612C13.4258 10.6631 12.7427 10.3573 11.9838 10.3369ZM14.2744 11.499C14.9644 12.2806 15.3646 13.3476 15.4612 14.5233C15.3646 13.2592 14.9644 12.1854 14.2744 11.499ZM14.2744 11.499C14.9644 12.2806 15.3646 13.3476 15.4612 14.5233C15.3646 13.2592 14.9644 12.1854 14.2744 11.499ZM11.9838 10.3369C12.7358 10.3641 13.481 10.7311 14.0399 11.2612C13.4258 10.6631 12.7427 10.3573 11.9838 10.3369ZM11.8458 17.9417C10.6177 17.9281 9.52062 16.5961 9.42403 14.8155C9.41713 14.7475 9.41713 14.6796 9.41713 14.6116C9.41713 14.7136 9.41713 14.8155 9.42403 14.9175C9.52062 16.6708 10.6108 18.132 11.9976 18.0369C11.9493 18.0029 11.8941 17.9757 11.8458 17.9417ZM11.4387 11.5262C10.797 12.0495 10.39 13.1709 10.4038 14.4077C10.4107 13.1029 10.8867 11.9476 11.6043 11.499C11.5491 11.5058 11.4939 11.5126 11.4387 11.5262ZM9.9208 18.1456C10.5418 18.764 11.2386 19.0835 12.0114 19.1038C11.2455 19.0767 10.4797 18.6961 9.9208 18.1456ZM11.7975 2.24274L11.7492 2.29711L19.2215 10.6223V29.3184L19.3181 29.3388V10.5272L11.7975 2.24274ZM14.2744 11.499C14.9644 12.2806 15.3646 13.3476 15.4612 14.5233C15.3646 13.2592 14.9644 12.1854 14.2744 11.499ZM11.9838 10.3369C12.7358 10.3641 13.481 10.7311 14.0399 11.2612C13.4258 10.6631 12.7427 10.3573 11.9838 10.3369ZM11.8458 17.9417C10.6177 17.9281 9.52062 16.5961 9.42403 14.8155C9.41713 14.7475 9.41713 14.6796 9.41713 14.6116C9.41713 14.7136 9.41713 14.8155 9.42403 14.9175C9.52062 16.6708 10.6108 18.132 11.9976 18.0369C11.9493 18.0029 11.8941 17.9757 11.8458 17.9417ZM11.4042 21.0543L4.97379 22.0126V22.0262L11.5077 21.0475C11.5077 21.0475 11.5629 21.0407 11.6457 21.0339C11.5008 21.0407 11.4042 21.0543 11.4042 21.0543ZM11.4387 11.5262C10.797 12.0495 10.39 13.1709 10.4038 14.4077C10.4107 13.1029 10.8867 11.9476 11.6043 11.499C11.5491 11.5058 11.4939 11.5126 11.4387 11.5262ZM9.9208 18.1456C10.5418 18.764 11.2386 19.0835 12.0114 19.1038C11.2455 19.0767 10.4797 18.6961 9.9208 18.1456ZM8.73407 11.1116C9.52752 10.2349 10.5142 9.54854 11.7009 9.45339C10.5142 9.55533 9.52062 10.1398 8.73407 11.1116ZM9.9208 18.1456C10.5418 18.764 11.2386 19.0835 12.0114 19.1038C11.2455 19.0767 10.4797 18.6961 9.9208 18.1456ZM11.4387 11.5262C10.797 12.0495 10.39 13.1709 10.4038 14.4077C10.4107 13.1029 10.8867 11.9476 11.6043 11.499C11.5491 11.5058 11.4939 11.5126 11.4387 11.5262ZM11.8458 17.9417C10.6177 17.9281 9.52062 16.5961 9.42403 14.8155C9.41713 14.7475 9.41713 14.6796 9.41713 14.6116C9.41713 14.7136 9.41713 14.8155 9.42403 14.9175C9.52062 16.6708 10.6108 18.132 11.9976 18.0369C11.9493 18.0029 11.8941 17.9757 11.8458 17.9417ZM11.9838 10.3369C12.7358 10.3641 13.481 10.7311 14.0399 11.2612C13.4258 10.6631 12.7427 10.3573 11.9838 10.3369ZM14.2744 11.499C14.9644 12.2806 15.3646 13.3476 15.4612 14.5233C15.3646 13.2592 14.9644 12.1854 14.2744 11.499ZM9.9208 18.1456C10.5418 18.764 11.2386 19.0835 12.0114 19.1038C11.2455 19.0767 10.4797 18.6961 9.9208 18.1456ZM11.4387 11.5262C10.797 12.0495 10.39 13.1709 10.4038 14.4077C10.4107 13.1029 10.8867 11.9476 11.6043 11.499C11.5491 11.5058 11.4939 11.5126 11.4387 11.5262ZM11.8458 17.9417C10.6177 17.9281 9.52062 16.5961 9.42403 14.8155C9.41713 14.7475 9.41713 14.6796 9.41713 14.6116C9.41713 14.7136 9.41713 14.8155 9.42403 14.9175C9.52062 16.6708 10.6108 18.132 11.9976 18.0369C11.9493 18.0029 11.8941 17.9757 11.8458 17.9417ZM11.9838 10.3369C12.7358 10.3641 13.481 10.7311 14.0399 11.2612C13.4258 10.6631 12.7427 10.3573 11.9838 10.3369ZM14.2744 11.499C14.9644 12.2806 15.3646 13.3476 15.4612 14.5233C15.3646 13.2592 14.9644 12.1854 14.2744 11.499ZM9.9208 18.1456C10.5418 18.764 11.2386 19.0835 12.0114 19.1038C11.2455 19.0767 10.4797 18.6961 9.9208 18.1456ZM11.4387 11.5262C10.797 12.0495 10.39 13.1709 10.4038 14.4077C10.4107 13.1029 10.8867 11.9476 11.6043 11.499C11.5491 11.5058 11.4939 11.5126 11.4387 11.5262ZM11.8458 17.9417C10.6177 17.9281 9.52062 16.5961 9.42403 14.8155C9.41713 14.7475 9.41713 14.6796 9.41713 14.6116C9.41713 14.7136 9.41713 14.8155 9.42403 14.9175C9.52062 16.6708 10.6108 18.132 11.9976 18.0369C11.9493 18.0029 11.8941 17.9757 11.8458 17.9417ZM11.9838 10.3369C12.7358 10.3641 13.481 10.7311 14.0399 11.2612C13.4258 10.6631 12.7427 10.3573 11.9838 10.3369ZM14.2744 11.499C14.9644 12.2806 15.3646 13.3476 15.4612 14.5233C15.3646 13.2592 14.9644 12.1854 14.2744 11.499ZM9.9208 18.1456C10.5418 18.764 11.2386 19.0835 12.0114 19.1038C11.2455 19.0767 10.4797 18.6961 9.9208 18.1456ZM11.4387 11.5262C10.797 12.0495 10.39 13.1709 10.4038 14.4077C10.4107 13.1029 10.8867 11.9476 11.6043 11.499C11.5491 11.5058 11.4939 11.5126 11.4387 11.5262ZM11.8458 17.9417C10.6177 17.9281 9.52062 16.5961 9.42403 14.8155C9.41713 14.7475 9.41713 14.6796 9.41713 14.6116C9.41713 14.7136 9.41713 14.8155 9.42403 14.9175C9.52062 16.6708 10.6108 18.132 11.9976 18.0369C11.9493 18.0029 11.8941 17.9757 11.8458 17.9417ZM11.9838 10.3369C12.7358 10.3641 13.481 10.7311 14.0399 11.2612C13.4258 10.6631 12.7427 10.3573 11.9838 10.3369ZM14.2744 11.499C14.9644 12.2806 15.3646 13.3476 15.4612 14.5233C15.3646 13.2592 14.9644 12.1854 14.2744 11.499ZM9.9208 18.1456C10.5418 18.764 11.2386 19.0835 12.0114 19.1038C11.2455 19.0767 10.4797 18.6961 9.9208 18.1456ZM11.4387 11.5262C10.797 12.0495 10.39 13.1709 10.4038 14.4077C10.4107 13.1029 10.8867 11.9476 11.6043 11.499C11.5491 11.5058 11.4939 11.5126 11.4387 11.5262ZM11.8458 17.9417C10.6177 17.9281 9.52062 16.5961 9.42403 14.8155C9.41713 14.7475 9.41713 14.6796 9.41713 14.6116C9.41713 14.7136 9.41713 14.8155 9.42403 14.9175C9.52062 16.6708 10.6108 18.132 11.9976 18.0369C11.9493 18.0029 11.8941 17.9757 11.8458 17.9417ZM11.9838 10.3369C12.7358 10.3641 13.481 10.7311 14.0399 11.2612C13.4258 10.6631 12.7427 10.3573 11.9838 10.3369ZM14.2744 11.499C14.9644 12.2806 15.3646 13.3476 15.4612 14.5233C15.3646 13.2592 14.9644 12.1854 14.2744 11.499ZM22.1883 23.3922L25.6519 22.8077V22.7126L22.1883 23.3922ZM9.9208 18.1456C10.5418 18.764 11.2386 19.0835 12.0114 19.1038C11.2455 19.0767 10.4797 18.6961 9.9208 18.1456ZM11.4387 11.5262C10.797 12.0495 10.39 13.1709 10.4038 14.4077C10.4107 13.1029 10.8867 11.9476 11.6043 11.499C11.5491 11.5058 11.4939 11.5126 11.4387 11.5262ZM11.8458 17.9417C10.6177 17.9281 9.52062 16.5961 9.42403 14.8155C9.41713 14.7475 9.41713 14.6796 9.41713 14.6116C9.41713 14.7136 9.41713 14.8155 9.42403 14.9175C9.52062 16.6708 10.6108 18.132 11.9976 18.0369C11.9493 18.0029 11.8941 17.9757 11.8458 17.9417ZM11.9838 10.3369C12.7358 10.3641 13.481 10.7311 14.0399 11.2612C13.4258 10.6631 12.7427 10.3573 11.9838 10.3369ZM14.2744 11.499C14.9644 12.2806 15.3646 13.3476 15.4612 14.5233C15.3646 13.2592 14.9644 12.1854 14.2744 11.499ZM29.8123 22.033L27.0387 22.5223L29.9089 22.033H29.8123Z" fill="#3E3D53"/>
<path d="M25.4607 0H9.72273L0.518663 10.7242L3.78217 10.5271V22.1281L1.30522 22.5154C1.30522 22.5154 0.118487 22.7125 0.415169 23.9766C0.711852 24.8533 1.6019 24.8533 1.6019 24.8533L3.77527 24.4659V27.5853L19.3132 30.3174L31.5807 27.5853V10.7242L34.9477 10.432L25.4607 0ZM19.2235 29.4339C19.189 29.3455 11.082 27.898 7.06638 27.1912C6.96979 27.1776 6.8732 27.1572 6.7835 27.1436C6.65931 27.1232 6.53512 27.1028 6.42472 27.0824C6.36263 27.0688 6.30743 27.062 6.24533 27.0484C6.16254 27.0348 6.07974 27.0213 5.99695 27.0077C5.90035 26.9941 5.81066 26.9737 5.72786 26.9601C5.67267 26.9465 5.61747 26.9397 5.56227 26.9329C5.1207 26.8581 4.87231 26.8106 4.87231 26.8106V24.3708L11.5994 23.297C11.5994 23.297 12.7862 23.297 12.6896 22.0329C12.6206 21.197 11.9927 21.0543 11.6408 21.0475C11.5028 21.0407 11.4062 21.0611 11.4062 21.0611L4.97581 22.0193L4.87921 22.0329V10.2349L11.7098 2.24271L11.7581 2.29708L19.2304 10.6223V29.4339H19.2235ZM25.6539 22.7125L22.1903 23.3921V18.8116L25.6539 18.3223V22.7125ZM25.6539 16.8611L22.1903 17.3504L22.2869 12.7699L25.6539 12.4776V16.8611ZM29.911 22.0329H29.8144L27.0407 22.5222V18.1388L29.911 17.7514V22.0329ZM29.911 16.3786L27.0407 16.766V12.3825L29.911 12.0902V16.3786Z" fill="#3E3D53"/>
<path d="M11.8502 17.9426C11.0429 17.3989 10.5116 16.196 10.4219 14.8164C10.415 14.6805 10.4081 14.5446 10.4081 14.4086C10.415 13.1038 10.8911 11.9485 11.6087 11.4999C11.5535 11.5067 11.4983 11.5135 11.4431 11.5203C10.3046 11.7106 9.44219 12.9815 9.42149 14.6057C9.42149 14.7077 9.42149 14.8096 9.42839 14.9115C9.52498 16.6649 10.6151 18.1261 12.0019 18.031C11.9536 18.0038 11.8984 17.9766 11.8502 17.9426ZM11.8502 17.9426C11.0429 17.3989 10.5116 16.196 10.4219 14.8164C10.415 14.6805 10.4081 14.5446 10.4081 14.4086C10.415 13.1038 10.8911 11.9485 11.6087 11.4999C11.5535 11.5067 11.4983 11.5135 11.4431 11.5203C10.3046 11.7106 9.44219 12.9815 9.42149 14.6057C9.42149 14.7077 9.42149 14.8096 9.42839 14.9115C9.52498 16.6649 10.6151 18.1261 12.0019 18.031C11.9536 18.0038 11.8984 17.9766 11.8502 17.9426ZM11.8502 17.9426C11.0429 17.3989 10.5116 16.196 10.4219 14.8164C10.415 14.6805 10.4081 14.5446 10.4081 14.4086C10.415 13.1038 10.8911 11.9485 11.6087 11.4999C11.5535 11.5067 11.4983 11.5135 11.4431 11.5203C10.3046 11.7106 9.44219 12.9815 9.42149 14.6057C9.42149 14.7077 9.42149 14.8096 9.42839 14.9115C9.52498 16.6649 10.6151 18.1261 12.0019 18.031C11.9536 18.0038 11.8984 17.9766 11.8502 17.9426ZM11.8502 17.9426C11.0429 17.3989 10.5116 16.196 10.4219 14.8164C10.415 14.6805 10.4081 14.5446 10.4081 14.4086C10.415 13.1038 10.8911 11.9485 11.6087 11.4999C11.5535 11.5067 11.4983 11.5135 11.4431 11.5203C10.3046 11.7106 9.44219 12.9815 9.42149 14.6057C9.42149 14.7077 9.42149 14.8096 9.42839 14.9115C9.52498 16.6649 10.6151 18.1261 12.0019 18.031C11.9536 18.0038 11.8984 17.9766 11.8502 17.9426ZM11.8502 17.9426C11.0429 17.3989 10.5116 16.196 10.4219 14.8164C10.415 14.6805 10.4081 14.5446 10.4081 14.4086C10.415 13.1038 10.8911 11.9485 11.6087 11.4999C11.5535 11.5067 11.4983 11.5135 11.4431 11.5203C10.3046 11.7106 9.44219 12.9815 9.42149 14.6057C9.42149 14.7077 9.42149 14.8096 9.42839 14.9115C9.52498 16.6649 10.6151 18.1261 12.0019 18.031C11.9536 18.0038 11.8984 17.9766 11.8502 17.9426ZM11.8502 17.9426C11.0429 17.3989 10.5116 16.196 10.4219 14.8164C10.415 14.6805 10.4081 14.5446 10.4081 14.4086C10.415 13.1038 10.8911 11.9485 11.6087 11.4999C11.5535 11.5067 11.4983 11.5135 11.4431 11.5203C10.3046 11.7106 9.44219 12.9815 9.42149 14.6057C9.42149 14.7077 9.42149 14.8096 9.42839 14.9115C9.52498 16.6649 10.6151 18.1261 12.0019 18.031C11.9536 18.0038 11.8984 17.9766 11.8502 17.9426ZM11.8502 17.9426C11.0429 17.3989 10.5116 16.196 10.4219 14.8164C10.415 14.6805 10.4081 14.5446 10.4081 14.4086C10.415 13.1038 10.8911 11.9485 11.6087 11.4999C11.5535 11.5067 11.4983 11.5135 11.4431 11.5203C10.3046 11.7106 9.44219 12.9815 9.42149 14.6057C9.42149 14.7077 9.42149 14.8096 9.42839 14.9115C9.52498 16.6649 10.6151 18.1261 12.0019 18.031C11.9536 18.0038 11.8984 17.9766 11.8502 17.9426ZM11.8502 17.9426C11.0429 17.3989 10.5116 16.196 10.4219 14.8164C10.415 14.6805 10.4081 14.5446 10.4081 14.4086C10.415 13.1038 10.8911 11.9485 11.6087 11.4999C11.5535 11.5067 11.4983 11.5135 11.4431 11.5203C10.3046 11.7106 9.44219 12.9815 9.42149 14.6057C9.42149 14.7077 9.42149 14.8096 9.42839 14.9115C9.52498 16.6649 10.6151 18.1261 12.0019 18.031C11.9536 18.0038 11.8984 17.9766 11.8502 17.9426ZM11.8502 17.9426C11.0429 17.3989 10.5116 16.196 10.4219 14.8164C10.415 14.6805 10.4081 14.5446 10.4081 14.4086C10.415 13.1038 10.8911 11.9485 11.6087 11.4999C11.5535 11.5067 11.4983 11.5135 11.4431 11.5203C10.3046 11.7106 9.44219 12.9815 9.42149 14.6057C9.42149 14.7077 9.42149 14.8096 9.42839 14.9115C9.52498 16.6649 10.6151 18.1261 12.0019 18.031C11.9536 18.0038 11.8984 17.9766 11.8502 17.9426ZM11.8502 17.9426C11.0429 17.3989 10.5116 16.196 10.4219 14.8164C10.415 14.6805 10.4081 14.5446 10.4081 14.4086C10.415 13.1038 10.8911 11.9485 11.6087 11.4999C11.5535 11.5067 11.4983 11.5135 11.4431 11.5203C10.3046 11.7106 9.44219 12.9815 9.42149 14.6057C9.42149 14.7077 9.42149 14.8096 9.42839 14.9115C9.52498 16.6649 10.6151 18.1261 12.0019 18.031C11.9536 18.0038 11.8984 17.9766 11.8502 17.9426ZM14.9688 10.9154C14.1753 10.0387 13.0921 9.45429 11.8984 9.45429H11.6984C10.5116 9.54943 9.51809 10.1339 8.73153 11.1125C8.06227 12.0572 7.5724 13.1853 7.5448 14.497C7.5448 14.5378 7.5448 14.5785 7.5448 14.6261V15.0135C7.64139 16.3795 8.13817 17.6436 8.93162 18.5203C9.72507 19.397 10.8152 19.9814 12.0019 19.9814H12.202C12.2779 19.9746 12.3538 19.9678 12.4228 19.9542C12.4573 19.9475 12.4918 19.9475 12.5263 19.9407C12.5608 19.9339 12.5884 19.9271 12.6229 19.9271C13.6233 19.7368 14.472 19.1795 15.1689 18.3232C15.8588 17.3513 16.3556 16.1824 16.3556 14.8164V14.429C16.259 13.063 15.7622 11.7989 14.9688 10.9154ZM15.4655 14.8164C15.4655 15.9853 15.0723 17.0591 14.4789 17.8407C13.8855 18.6222 13.0921 19.1047 12.202 19.1047H12.1054C12.0778 19.1047 12.0502 19.1047 12.0226 19.1047C11.2568 19.0776 10.4909 18.697 9.93206 18.1465C9.93206 18.1397 9.92516 18.1397 9.92516 18.1397C9.90446 18.1193 9.88376 18.0989 9.86997 18.0785C9.82167 18.031 9.78027 17.9834 9.73887 17.9358C9.04891 17.1543 8.64874 16.0873 8.55214 14.9115V14.6193C8.55214 13.4504 8.94542 12.3766 9.53878 11.5951C10.1322 10.8135 10.9256 10.331 11.8157 10.331H11.9122C11.9398 10.331 11.9674 10.331 11.995 10.331C12.7471 10.3582 13.4923 10.7252 14.0511 11.2552C14.0649 11.2688 14.0787 11.2824 14.0925 11.296C14.1063 11.3096 14.127 11.33 14.1408 11.3436C14.1753 11.3776 14.2098 11.4116 14.2374 11.4455C14.2512 11.4591 14.2719 11.4795 14.2857 11.4999C14.9757 12.2815 15.3758 13.3484 15.4724 14.5242V14.8164H15.4655ZM10.4219 14.8164C10.415 14.6805 10.4081 14.5446 10.4081 14.4086C10.415 13.1038 10.8911 11.9485 11.6087 11.4999C11.5535 11.5067 11.4983 11.5135 11.4431 11.5203C10.3046 11.7106 9.44219 12.9815 9.42149 14.6057C9.42149 14.7077 9.42149 14.8096 9.42839 14.9115C9.52498 16.6649 10.6151 18.1261 12.0019 18.031C11.9467 18.0038 11.8984 17.9698 11.8502 17.9358C11.0429 17.3989 10.5116 16.196 10.4219 14.8164ZM11.8502 17.9426C11.0429 17.3989 10.5116 16.196 10.4219 14.8164C10.415 14.6805 10.4081 14.5446 10.4081 14.4086C10.415 13.1038 10.8911 11.9485 11.6087 11.4999C11.5535 11.5067 11.4983 11.5135 11.4431 11.5203C10.3046 11.7106 9.44219 12.9815 9.42149 14.6057C9.42149 14.7077 9.42149 14.8096 9.42839 14.9115C9.52498 16.6649 10.6151 18.1261 12.0019 18.031C11.9536 18.0038 11.8984 17.9766 11.8502 17.9426ZM11.8502 17.9426C11.0429 17.3989 10.5116 16.196 10.4219 14.8164C10.415 14.6805 10.4081 14.5446 10.4081 14.4086C10.415 13.1038 10.8911 11.9485 11.6087 11.4999C11.5535 11.5067 11.4983 11.5135 11.4431 11.5203C10.3046 11.7106 9.44219 12.9815 9.42149 14.6057C9.42149 14.7077 9.42149 14.8096 9.42839 14.9115C9.52498 16.6649 10.6151 18.1261 12.0019 18.031C11.9536 18.0038 11.8984 17.9766 11.8502 17.9426ZM11.8502 17.9426C11.0429 17.3989 10.5116 16.196 10.4219 14.8164C10.415 14.6805 10.4081 14.5446 10.4081 14.4086C10.415 13.1038 10.8911 11.9485 11.6087 11.4999C11.5535 11.5067 11.4983 11.5135 11.4431 11.5203C10.3046 11.7106 9.44219 12.9815 9.42149 14.6057C9.42149 14.7077 9.42149 14.8096 9.42839 14.9115C9.52498 16.6649 10.6151 18.1261 12.0019 18.031C11.9536 18.0038 11.8984 17.9766 11.8502 17.9426ZM11.8502 17.9426C11.0429 17.3989 10.5116 16.196 10.4219 14.8164C10.415 14.6805 10.4081 14.5446 10.4081 14.4086C10.415 13.1038 10.8911 11.9485 11.6087 11.4999C11.5535 11.5067 11.4983 11.5135 11.4431 11.5203C10.3046 11.7106 9.44219 12.9815 9.42149 14.6057C9.42149 14.7077 9.42149 14.8096 9.42839 14.9115C9.52498 16.6649 10.6151 18.1261 12.0019 18.031C11.9536 18.0038 11.8984 17.9766 11.8502 17.9426ZM11.8502 17.9426C11.0429 17.3989 10.5116 16.196 10.4219 14.8164C10.415 14.6805 10.4081 14.5446 10.4081 14.4086C10.415 13.1038 10.8911 11.9485 11.6087 11.4999C11.5535 11.5067 11.4983 11.5135 11.4431 11.5203C10.3046 11.7106 9.44219 12.9815 9.42149 14.6057C9.42149 14.7077 9.42149 14.8096 9.42839 14.9115C9.52498 16.6649 10.6151 18.1261 12.0019 18.031C11.9536 18.0038 11.8984 17.9766 11.8502 17.9426ZM11.8502 17.9426C11.0429 17.3989 10.5116 16.196 10.4219 14.8164C10.415 14.6805 10.4081 14.5446 10.4081 14.4086C10.415 13.1038 10.8911 11.9485 11.6087 11.4999C11.5535 11.5067 11.4983 11.5135 11.4431 11.5203C10.3046 11.7106 9.44219 12.9815 9.42149 14.6057C9.42149 14.7077 9.42149 14.8096 9.42839 14.9115C9.52498 16.6649 10.6151 18.1261 12.0019 18.031C11.9536 18.0038 11.8984 17.9766 11.8502 17.9426ZM11.8502 17.9426C11.0429 17.3989 10.5116 16.196 10.4219 14.8164C10.415 14.6805 10.4081 14.5446 10.4081 14.4086C10.415 13.1038 10.8911 11.9485 11.6087 11.4999C11.5535 11.5067 11.4983 11.5135 11.4431 11.5203C10.3046 11.7106 9.44219 12.9815 9.42149 14.6057C9.42149 14.7077 9.42149 14.8096 9.42839 14.9115C9.52498 16.6649 10.6151 18.1261 12.0019 18.031C11.9536 18.0038 11.8984 17.9766 11.8502 17.9426ZM11.8502 17.9426C11.0429 17.3989 10.5116 16.196 10.4219 14.8164C10.415 14.6805 10.4081 14.5446 10.4081 14.4086C10.415 13.1038 10.8911 11.9485 11.6087 11.4999C11.5535 11.5067 11.4983 11.5135 11.4431 11.5203C10.3046 11.7106 9.44219 12.9815 9.42149 14.6057C9.42149 14.7077 9.42149 14.8096 9.42839 14.9115C9.52498 16.6649 10.6151 18.1261 12.0019 18.031C11.9536 18.0038 11.8984 17.9766 11.8502 17.9426ZM11.8502 17.9426C11.0429 17.3989 10.5116 16.196 10.4219 14.8164C10.415 14.6805 10.4081 14.5446 10.4081 14.4086C10.415 13.1038 10.8911 11.9485 11.6087 11.4999C11.5535 11.5067 11.4983 11.5135 11.4431 11.5203C10.3046 11.7106 9.44219 12.9815 9.42149 14.6057C9.42149 14.7077 9.42149 14.8096 9.42839 14.9115C9.52498 16.6649 10.6151 18.1261 12.0019 18.031C11.9536 18.0038 11.8984 17.9766 11.8502 17.9426ZM11.8502 17.9426C11.0429 17.3989 10.5116 16.196 10.4219 14.8164C10.415 14.6805 10.4081 14.5446 10.4081 14.4086C10.415 13.1038 10.8911 11.9485 11.6087 11.4999C11.5535 11.5067 11.4983 11.5135 11.4431 11.5203C10.3046 11.7106 9.44219 12.9815 9.42149 14.6057C9.42149 14.7077 9.42149 14.8096 9.42839 14.9115C9.52498 16.6649 10.6151 18.1261 12.0019 18.031C11.9536 18.0038 11.8984 17.9766 11.8502 17.9426Z" fill="#3E3D53"/>
</svg>
