<svg width="162" height="28" viewBox="0 0 162 28" fill="none" xmlns="http://www.w3.org/2000/svg">
<path d="M63.5116 3.02534C63.5116 2.38471 63.7709 1.77032 64.2324 1.31733C64.6939 0.864338 65.3199 0.609849 65.9726 0.609849C66.6252 0.609849 67.2511 0.864338 67.7126 1.31733C68.1741 1.77032 68.4334 2.38471 68.4334 3.02534C68.4096 3.65037 68.14 4.24202 67.6811 4.67597C67.2221 5.10991 66.6098 5.35235 65.9726 5.35235C65.3354 5.35235 64.7229 5.10991 64.264 4.67597C63.8051 4.24202 63.5354 3.65037 63.5116 3.02534Z" fill="#3E3D53"/>
<path d="M102.339 19.1348C102.339 17.7941 103.44 16.7109 104.795 16.7109C105.45 16.7109 106.077 16.9661 106.54 17.4203C107.003 17.8746 107.263 18.4907 107.263 19.1331C107.263 19.7755 107.003 20.3916 106.54 20.8458C106.077 21.3001 105.45 21.5553 104.795 21.5553C103.441 21.5553 102.339 20.4703 102.339 19.1331" fill="#3E3D53"/>
<path d="M23.1159 18.087C20.9978 18.087 19.524 16.4352 19.524 14.0735C19.524 11.7136 20.9977 10.0634 23.1176 10.0634C25.2477 10.0634 26.7369 11.7136 26.7369 14.0735C26.7369 16.4722 25.2803 18.087 23.1159 18.087ZM23.1159 6.53606C18.6329 6.53606 15.3785 9.70681 15.3785 14.0735C15.3785 18.4419 18.6346 21.611 23.1159 21.611C27.6178 21.611 30.8841 18.4419 30.8841 14.0752C30.8841 9.70681 27.6178 6.53606 23.1176 6.53606H23.1159ZM58.737 14.452C58.581 14.1558 58.3837 13.8824 58.1509 13.6396L58.0138 13.4999L58.1578 13.3654C58.3635 13.1517 58.5742 12.8994 58.7764 12.6067L62.7351 6.83379H57.9299L54.9565 11.3502C54.7886 11.5924 54.4493 11.7136 53.9404 11.7136H53.2634V3.17522C53.2634 1.46789 52.1787 1.23576 51.0082 1.23576H49.0031L49.0082 21.389H53.2651V15.3435H53.6644C54.1494 15.3435 54.4784 15.399 54.6309 15.6581L56.9787 20.008C57.635 21.1888 58.288 21.389 59.5184 21.389H62.7796L60.3496 17.4461L58.7387 14.452H58.737ZM79.4009 6.50241C77.2348 6.50241 75.8535 7.44775 75.0789 8.24675L74.8219 8.50243L74.7293 8.15423C74.5031 7.29805 73.7354 6.82874 72.5821 6.82874H70.6746L70.6867 21.3839H74.9144V14.6757C74.9144 14.0197 75 13.4512 75.1783 12.9314C75.6478 11.3586 76.9605 10.3813 78.6005 10.3813C79.9201 10.3813 80.436 11.0659 80.436 12.8322V19.172C80.436 20.6791 81.1471 21.3839 82.6843 21.3839H84.6962L84.6894 12.1257C84.6894 8.4486 82.8609 6.50409 79.4009 6.50409V6.50241ZM66.0151 6.83379H64.0118L64.0255 18.0887V21.389H66.1625L66.2379 21.3923L67.2353 21.389H68.2258V21.3839H68.2326L68.2412 9.04575C68.2412 7.55709 67.5164 6.83547 66.0169 6.83547L66.0151 6.83379ZM39.72 18.087C37.6018 18.087 36.1264 16.4352 36.1264 14.0735C36.1264 11.7136 37.6019 10.0634 39.7217 10.0634C41.8467 10.0634 43.3411 11.7136 43.3411 14.0735C43.3411 16.4722 41.8844 18.087 39.7217 18.087H39.72ZM39.72 6.53606C35.2335 6.53606 31.9774 9.70681 31.9774 14.0735C31.9774 18.4419 35.2335 21.611 39.7217 21.611C44.2168 21.611 47.4899 18.4419 47.4899 14.0752C47.4899 9.70681 44.2168 6.53606 39.7217 6.53606" fill="#3E3D53"/>
<path d="M130.34 18.0862C128.222 18.0862 126.745 16.4344 126.745 14.0727C126.745 11.7127 128.222 10.0626 130.34 10.0626C132.469 10.0626 133.961 11.7127 133.961 14.0727C133.961 16.4714 132.505 18.0862 130.34 18.0862ZM130.34 6.5352C125.854 6.5352 122.599 9.70596 122.599 14.0727C122.599 18.4411 125.854 21.6102 130.34 21.6102C134.837 21.6102 138.109 18.4411 138.109 14.0744C138.109 9.70596 134.835 6.5352 130.34 6.5352Z" fill="#3E3D53"/>
<path d="M93.6102 17.4452C91.2984 17.4452 90.4759 15.4671 90.4759 13.6117C90.4759 12.7942 90.6866 10.1315 93.3891 10.1315C94.7309 10.1315 96.5183 10.5082 96.5183 13.748C96.5183 16.8043 94.9366 17.4452 93.6102 17.4452ZM98.7136 6.79417C97.9116 6.79417 97.2947 7.10872 96.9845 7.68232L96.868 7.90435L96.6726 7.73614C95.9905 7.1575 94.767 6.46952 92.7808 6.46952C88.8273 6.46952 86.1659 9.3846 86.1659 13.7194C86.1659 18.0525 88.9198 21.0802 92.8596 21.0802C94.2049 21.0802 95.269 20.7707 96.1122 20.145L96.4378 19.9044V20.3082C96.4378 22.2527 95.1577 23.3258 92.8356 23.3258C91.7062 23.3258 90.6798 23.0567 89.9909 22.8111C89.0963 22.5453 88.5685 22.7657 88.2069 23.6488L87.871 24.4629L87.3963 25.6539L87.6893 25.8069C89.1768 26.5807 91.1117 27.0433 92.8596 27.0433C96.4584 27.0433 100.664 25.235 100.664 20.145L100.679 6.79417H98.7136Z" fill="#3E3D53"/>
<path d="M7.3775 17.9192L3.93638 17.9158V13.8788C3.93638 13.0142 4.27741 12.5668 5.02973 12.4625H7.3775C9.05179 12.4625 10.1348 13.4987 10.1365 15.1757C10.1348 16.8982 9.07921 17.9175 7.3775 17.9175V17.9192ZM3.93638 7.02594V5.96286C3.93638 5.03266 4.33741 4.59026 5.21654 4.53307H6.97825C8.48803 4.53307 9.39286 5.41954 9.39286 6.90483C9.39286 8.0352 8.77248 9.35565 7.03306 9.35565H3.93638V7.02594ZM11.7715 11.0562L11.1494 10.7131L11.6926 10.2573C12.325 9.72403 13.3824 8.52469 13.3824 6.45571C13.3824 3.28664 10.8804 1.2412 7.00566 1.2412H2.08042C1.52623 1.26104 1.00109 1.4894 0.613772 1.87897C0.226454 2.26854 0.0066738 2.78944 0 3.33373V21.3154H7.093C11.3995 21.3154 14.1792 19.0143 14.1792 15.4499C14.1792 13.5306 13.2813 11.8906 11.7715 11.0562Z" fill="#3E3D53"/>
<path d="M156.982 6.5493C156.109 6.55246 155.248 6.74803 154.463 7.12157C153.677 7.49511 152.987 8.03707 152.444 8.70744L152.139 9.08759L151.899 8.66202C151.114 7.26083 149.767 6.5493 147.894 6.5493C145.928 6.5493 144.61 7.62584 143.999 8.26504L143.598 8.69061L143.443 8.13047C143.221 7.32307 142.489 6.88068 141.382 6.88068H139.605L139.587 21.3804H143.623V14.98C143.623 14.4182 143.695 13.8647 143.838 13.2844C144.223 11.7369 145.282 10.0733 147.063 10.2398C148.159 10.3441 148.698 11.1768 148.698 12.7848V21.3804H152.763V14.98C152.763 14.2785 152.829 13.7537 152.99 13.2289C153.316 11.752 154.423 10.2381 156.14 10.2381C157.384 10.2381 157.844 10.9278 157.844 12.7848V19.2609C157.844 20.7243 158.509 21.3804 160.001 21.3804H161.9L161.903 12.1238C161.903 8.42484 160.245 6.5493 156.982 6.5493ZM120.25 16.3458C120.238 16.361 118.502 18.1575 116.214 18.1575C114.13 18.1575 112.026 16.9026 112.026 14.1019C112.026 11.6831 113.657 9.99256 115.995 9.99256C116.752 9.99256 117.616 10.2583 117.751 10.7074L117.77 10.7831C117.857 11.0923 118.045 11.3649 118.305 11.5587C118.565 11.7524 118.883 11.8564 119.21 11.8546L121.421 11.858V9.9606C121.421 7.45763 118.176 6.5493 115.995 6.5493C111.327 6.5493 107.94 9.73856 107.94 14.1322C107.94 18.5225 111.289 21.7084 115.909 21.7084C119.916 21.7084 122.096 19.123 122.116 19.0978L122.233 18.9565L120.481 16.1053L120.25 16.3458Z" fill="#3E3D53"/>
</svg>
