<svg width="474" height="619" viewBox="0 0 474 619" fill="none" xmlns="http://www.w3.org/2000/svg">
<mask id="mask0_74_174" style="mask-type:alpha" maskUnits="userSpaceOnUse" x="0" y="0" width="474" height="619">
<path d="M330.074 350.109C325.055 350.169 320.455 348.048 316.035 345.898C312.868 344.733 309.523 342.582 306.088 344.046C298.262 348.317 291.272 349.572 284.312 342.881C277.322 336.459 282.759 325.406 289.002 320.478C290.645 319.134 294.827 316.595 295.484 320.089C295.543 321.105 294.767 321.971 293.751 322.061C289.181 324.092 285.925 328.991 284.939 333.8C283.715 339.117 289.629 343.388 294.378 343.747C298.919 344.285 302.384 340.82 306.625 339.953C309.583 339.236 312.42 340.282 315.138 341.417C319.201 342.851 322.845 345.42 327.176 346.017C331.478 346.405 336.406 346.973 340.17 344.434C346.682 339.386 346.562 330.126 343.635 323.136C341.514 318.954 338.945 314.952 337.93 310.292C336.317 304.258 336.645 297.926 336.436 291.742C335.988 283.946 335.032 276.09 332.165 268.772V268.862L332.224 268.921C328.102 259.871 324.159 249.625 328.013 239.798C333.987 224.832 349.131 220.561 363.917 220.083C364.933 220.023 365.859 220.86 365.888 221.875C365.918 222.891 365.112 223.787 364.096 223.847C362.095 223.966 360.123 224.116 358.122 224.325C352.954 225.012 347.667 225.878 343.067 228.417C336.705 231.942 331.418 238.125 330.462 245.503C329.207 253.15 332.822 260.587 335.689 267.368C338.676 274.776 339.662 282.781 340.2 290.697C340.469 296.85 340.021 303.093 341.544 309.097C342.918 315.639 347.877 320.717 348.862 327.378C351.521 340.282 344.143 351.573 330.104 350.05L330.074 350.109Z" fill="black"/>
<path d="M371.235 358.861C370.25 358.831 369.294 357.935 369.413 356.89C369.772 352.708 370.309 348.556 371.235 344.464C373.087 333.083 378.912 322.987 381.302 311.845C383.333 304.736 384.677 297.477 384.289 290.07C383.871 277.942 381.063 266.084 380.107 254.016C379.3 244.427 380.226 234.809 380.017 225.221C379.748 218.649 378.494 212.167 376.732 205.835C375.447 201.175 374.282 196.455 372.52 191.945C371.773 190.003 369.981 186.24 373.296 185.911C374.312 185.941 375.178 186.837 375.119 187.883C376.433 191.736 377.956 195.529 378.942 199.502C381.123 207.149 383.184 214.885 383.691 222.831C384.229 231.583 383.303 240.544 383.632 249.266C384.139 263.395 387.933 277.195 388.112 291.324C388.501 301.241 385.573 310.74 383.004 320.119C381.302 325.556 378.822 330.723 377.15 336.19C375.985 340.222 375.089 344.284 374.312 348.407C373.804 351.185 373.506 353.992 373.237 356.621C373.296 357.756 372.46 358.921 371.235 358.861V358.861Z" fill="black"/>
<path d="M469.927 516.249C466.343 506.511 464.013 496.355 461.922 486.229C459.951 476.581 459.383 466.604 456.247 457.195C453.14 447.039 447.704 437.869 442.895 428.459C438.623 420.753 434.621 412.748 433.456 403.936C431.992 393.601 432.35 383.146 431.395 372.781C430.379 359.996 427.422 347.361 421.985 335.712C419.088 329.738 416.131 323.734 412.666 318.028C406.751 309.874 402.062 300.823 399.553 291.025C396.595 278.211 396.237 265.008 392.593 252.433C388.799 237.856 383.124 223.877 378.703 209.479C376.433 203.057 375.089 196.306 372.251 190.093C371.922 189.436 371.534 188.749 371.474 188.002C371.355 186.986 372.131 186.031 373.177 185.911C374.193 185.792 375.059 186.538 375.268 187.524C379.121 195.828 380.943 204.909 384.02 213.511C388.262 226.714 393.34 239.618 396.745 253.09C400.419 266.143 400.389 279.884 404.063 292.788C405.557 297.388 407.468 301.809 409.619 306.11C411.74 310.142 414.667 313.697 416.967 317.61C421.776 326.213 426.436 334.995 429.632 344.344C433.067 353.992 434.621 364.148 435.457 374.304C436.532 386.701 435.457 399.455 439.25 411.463C444.687 426.309 454.574 439.153 459.413 454.268C463.953 467.411 464.222 481.539 467.836 494.921C469.42 501.642 471.152 508.333 473.602 514.785C473.96 515.741 473.482 516.876 472.526 517.235C471.6 517.593 470.435 517.115 470.077 516.159L469.927 516.249Z" fill="black"/>
<path d="M361.318 380.01C359.586 372.184 355.673 364.806 349.251 359.847C347.339 358.264 349.699 355.366 351.64 356.92C356.509 360.803 360.392 365.881 362.692 371.676C363.648 374.095 364.365 376.574 365.022 379.113C365.291 380.099 364.604 381.175 363.618 381.384C362.633 381.623 361.587 380.995 361.318 379.98V380.01Z" fill="black"/>
<path d="M375.268 545.014C361.378 517.802 358.57 499.223 362.035 468.994C363.648 454.716 365.649 440.049 362.931 425.831C362.931 425.921 362.931 425.98 362.961 426.07C361.975 420.544 360.273 415.167 357.913 410.059C357.017 408.177 356.001 406.385 354.956 404.593C354.418 403.697 354.836 402.502 355.703 402.024C356.629 401.516 357.734 401.905 358.271 402.771C374.79 429.774 365.321 458.688 364.484 487.872C364.036 500.358 365.978 512.605 370.279 524.284C371.803 528.526 373.595 532.737 375.507 536.8C376.492 538.921 377.538 541.071 378.553 543.192C379.002 544.118 378.733 545.253 377.807 545.761C376.94 546.239 375.686 545.94 375.238 545.014H375.268Z" fill="black"/>
<path d="M397.312 517.085C396.356 516.637 395.968 515.532 396.386 514.576C397.402 512.127 398.387 509.677 399.403 507.228C402.121 500.328 403.914 493.01 403.675 485.572C403.555 483.242 403.286 480.912 403.017 478.582C402.898 477.567 403.704 476.611 404.72 476.491C405.765 476.372 406.662 477.178 406.781 478.194C407.08 480.942 407.468 483.69 407.468 486.468C407.588 494.294 405.616 502.001 402.689 509.199C401.733 511.529 400.807 513.829 399.851 516.159C399.463 517.115 398.238 517.503 397.342 517.085H397.312Z" fill="black"/>
<path d="M67.4226 324.63C62.1356 324.54 56.7887 324.6 51.5315 324.002C50.5159 323.913 49.7692 322.897 49.8887 321.882C50.0081 320.836 50.964 320.119 52.0095 320.239C55.6537 320.657 59.3277 320.717 63.0018 320.776C66.646 320.806 70.4097 321.135 73.9344 320C92.2151 312.861 106.165 298.672 119.427 284.693C133.526 270.295 146.221 254.643 159.633 239.648C180.393 217.903 203.722 197.232 232.158 186.329C259.251 175.068 288.942 174.381 317.887 174.112C349.34 173.306 381.72 174.053 411.68 184.687C417.535 186.987 426.585 192.393 426.675 199.293C426.078 206.014 415.294 209.927 410.127 213.004C404.66 216.021 399.732 219.067 394.952 222.891C393.13 224.623 390.562 221.995 392.264 220.232C398.119 215.423 404.75 211.54 411.471 208.045C415.414 205.715 420.402 203.863 422.762 199.771C423.12 198.995 422.732 197.919 422.433 197.322C415.623 187.016 399.164 184.896 387.933 182.177C368.696 178.264 349.071 177.697 329.506 177.667C313.197 178.025 296.828 177.996 280.549 179.37C257.787 180.803 235.205 187.226 215.401 198.576C189.414 213.512 168.056 234.929 148.969 257.72C138.694 269.817 127.91 281.497 116.828 292.848C106.493 303.75 95.1424 313.996 81.5812 320.717C77.25 323.106 72.5006 324.869 67.5122 324.63H67.4226Z" fill="black"/>
<path d="M55.2055 287.471C54.6081 286.664 54.6977 285.41 55.564 284.812C61.5978 280.63 67.5719 276.359 73.2473 271.699C87.0774 260.348 98.5476 246.339 108.584 231.613C116.44 220.053 123.938 208.135 133.616 197.949C141.233 189.914 149.357 182.446 158.169 175.785C168.773 167.899 179.945 160.641 191.684 154.577C209.307 146.333 227.976 140.299 247.034 136.416C262.985 133.459 279.145 131.159 295.394 130.92C311.554 131.009 327.833 131.786 343.784 134.444C359.765 137.282 375.447 141.793 390.771 147.109C406.542 152.755 432.41 162.582 434.71 181.431C435.128 188.39 432.47 195.47 428.168 200.876C427.242 202.161 425.629 204.222 423.987 202.669C423.24 201.952 423.24 200.727 423.987 199.98C428.019 195.589 430.528 189.824 431.006 183.88C431.215 165.181 401.614 154.936 386.977 149.768C369.204 143.824 351.192 138.776 332.583 136.625C316.483 135.131 300.293 134.026 284.103 135.102C266.838 136.625 249.543 139.015 232.815 143.674C219.194 147.109 205.962 152.098 193.207 157.982C178.272 165.868 164.054 175.247 151.209 186.24C138.335 197.202 127.253 210.076 118.053 224.265C104.641 244.876 89.467 264.799 69.4836 279.436C65.6901 282.333 61.7771 285.021 57.864 287.77C57.0276 288.367 55.8627 288.277 55.2055 287.411V287.471Z" fill="black"/>
<path d="M73.7849 257.003C72.2316 255.3 74.4421 253.747 75.2784 252.283C78.7434 246.728 82.1486 241.112 85.7032 235.586C91.3786 226.834 96.5761 217.992 102.759 209.658C114.498 194.036 127.671 179.28 142.636 166.645C152.374 158.43 163.217 151.71 174.508 145.855C188.816 137.85 204.05 131.696 219.553 126.469C235.175 121.57 251.066 117.179 267.286 114.849C289.091 111.832 311.315 111.414 333.18 114.043C350.445 116.194 367.71 119.24 384.378 124.288C390.412 126.081 396.267 128.5 402.151 130.711C403.107 131.069 403.585 132.234 403.197 133.19C402.808 134.146 401.703 134.624 400.717 134.235C394.504 131.846 388.321 129.396 381.929 127.485C363.439 122.168 344.322 118.852 325.175 117C305.699 115.327 286.015 115.955 266.659 118.733C249.513 121.391 232.756 126.051 216.327 131.517C201.481 136.834 186.934 142.987 173.224 150.813C160.559 157.445 148.67 165.779 138.186 175.486C123.639 189.287 110.257 204.521 99.2346 221.308C93.5293 230.179 87.8838 239.081 82.298 248.012C80.6252 250.7 79.1019 253.508 77.1901 256.047C76.5031 257.242 74.8901 258.168 73.755 256.973L73.7849 257.003Z" fill="black"/>
<path d="M53.503 241.261C44.0042 241.112 33.7287 241.47 25.3052 236.452C12.6401 226.894 10.8479 210.465 15.0298 196.067C21.4221 176.383 35.6404 160.82 48.6341 145.198C55.9822 136.266 63.5096 127.305 68.5577 116.881C74.711 103.379 78.7435 88.8919 86.3904 76.1073C98.5775 56.2434 118.232 38.9783 138.066 26.8808C157.213 14.9326 177.227 9.4364 199.749 9.34679C217.044 9.40653 234.608 9.04808 251.604 5.61298C274.306 1.31163 300.173 -5.25988 321.411 7.25585C329.148 12.6027 334.047 21.5339 342.858 25.447C371.982 36.6185 398.597 45.4901 411.829 76.7943C419.506 96.0309 426.615 118.703 411.889 136.505C410.306 138.477 407.438 136.207 408.842 134.235C421 119.718 416.728 101.139 410.844 84.9191C403.286 61.0227 385.812 46.6849 363.23 37.4549C355.434 34.1692 347.219 31.8393 339.632 28.0756C334.106 25.1781 329.835 20.4586 325.563 16.0378C308.298 -3.64687 273.051 5.43375 250.708 9.64549C202.497 18.517 180.064 3.19347 133.914 33.9601C117.366 45.3108 101.923 59.2006 90.8709 76.0476C82.9254 88.6231 78.8033 103.08 72.859 116.642C67.4525 128.709 58.9095 138.746 50.5757 148.842C38.0898 163.777 24.5585 178.802 18.4948 197.68C15.2389 209.987 16.135 223.19 26.0221 232.24C31.2793 236.512 38.4781 236.84 44.96 237.348C47.7977 237.438 50.6653 237.468 53.503 237.498C54.5186 237.498 55.4147 238.334 55.4147 239.379C55.4147 240.395 54.5484 241.291 53.5328 241.291L53.503 241.261Z" fill="black"/>
<path d="M132.719 490.262C129.045 462.243 138.186 443.873 149.298 419.289C155.003 405.609 153.121 390.524 154.674 376.127C156.198 362.565 161.933 349.96 164.203 336.518C168.624 315.967 166.174 294.879 167.339 274.029C167.787 263.007 167.1 251.656 170.416 240.992C172.895 233.166 176.987 225.997 181.319 219.068C181.856 218.201 183.081 217.962 183.947 218.5C184.814 219.068 185.053 220.232 184.515 221.129C182.962 223.638 181.438 226.177 179.975 228.746C178.212 231.942 176.689 235.257 175.285 238.633C171.521 247.833 171.581 257.899 171.312 267.667C170.984 278.689 170.774 289.741 170.715 300.763C170.864 311.965 170.655 323.226 168.564 334.218C167.519 339.595 166.324 344.972 164.95 350.259C162.5 359.011 159.244 367.972 158.408 376.993C157.064 390.883 158.617 405.25 153.629 418.602C150.761 426.488 146.579 433.806 143.622 441.662C139.53 451.639 136.364 462.064 135.945 472.907C135.497 478.612 136.005 484.228 136.543 489.903C136.752 492.173 133.108 492.89 132.779 490.232L132.719 490.262Z" fill="black"/>
<path d="M184.216 375.021C183.201 374.962 182.364 374.065 182.424 373.05C182.693 368.748 182.842 364.447 183.35 360.176C184.724 347.63 187.323 335.174 193.984 324.271C197.15 319.014 200.227 313.189 205.424 309.665C207.575 308.559 209.337 311.696 207.276 312.98C202.646 316.445 199.838 321.852 196.941 326.751C192.311 334.726 189.443 343.538 188.249 352.678C187.024 359.459 186.606 366.359 186.217 373.259C186.158 374.304 185.262 375.111 184.246 375.051L184.216 375.021Z" fill="black"/>
<path d="M199.211 430.491C198.255 430.043 197.897 428.907 198.315 427.952C199.181 425.92 200.077 423.919 200.944 421.888C204.17 413.942 206.081 405.549 207.664 397.155C208.919 390.643 209.576 383.982 210.323 377.441C210.801 373.08 211.339 368.718 212.145 364.387C212.324 363.372 213.34 362.685 214.355 362.864C215.371 363.043 216.058 364.059 215.879 365.074C214.923 370.391 214.326 375.768 213.728 381.085V380.935C212.294 394.437 210.084 408.028 205.394 420.842C204.319 423.8 203.005 426.697 201.75 429.594C201.332 430.55 200.137 430.909 199.211 430.491Z" fill="black"/>
<path d="M0.333482 560.009C-0.263928 559.143 -0.024964 557.978 0.781539 557.381C2.42442 556.156 4.09716 554.901 5.71017 553.617C9.3245 550.66 12.431 547.165 15.5674 543.73C20.9441 537.397 25.9922 530.647 29.965 523.328C35.2521 512.724 32.3248 500.627 32.4442 489.306C32.3248 472.548 37.3729 456.418 43.9743 441.155C48.5444 428.28 57.3264 417.437 61.4485 404.414C65.3914 391.958 66.1979 379.024 69.4239 366.419C73.1278 350.289 78.863 334.397 87.4657 320.239C91.5878 313.936 95.7099 307.484 101.445 302.496C103.566 300.614 105.836 298.941 108.046 297.149C108.853 296.522 110.108 296.791 110.675 297.597C111.571 298.852 110.556 300.166 109.45 300.823C108.375 301.689 107.27 302.555 106.194 303.422C100.639 307.753 96.4268 313.398 92.6333 319.283C84.0306 332.187 78.4149 346.943 74.4422 361.819C71.0369 374.543 69.5135 387.716 66.5563 400.531C64.7342 407.58 61.9862 414.42 58.4017 420.753C55.1458 426.399 51.8302 432.014 49.3808 438.078C43.8249 451.131 38.5378 464.125 36.895 478.254C36.1482 485.064 36.0884 491.695 36.5962 498.446C36.9248 506.541 37.582 515.054 34.3858 522.701C32.2949 527.749 29.0988 532.23 25.9026 536.591C21.2129 543.401 15.7467 549.644 9.65307 555.23C7.56214 557.142 5.23224 558.784 2.96208 560.457C2.15558 561.085 0.901021 560.816 0.333482 560.009V560.009Z" fill="black"/>
<path d="M27.665 568.283C27.0676 567.417 27.3066 566.252 28.1131 565.655C30.2638 564.042 32.3846 562.429 34.3859 560.845C36.6262 558.904 38.8067 556.843 40.8976 554.722C50.1874 545.522 56.6394 533.663 59.8953 521.058C63.5992 505.884 61.6576 490.262 59.5368 475.028C58.7303 468.605 58.6706 462.153 60.0446 455.851C60.3732 454.238 60.881 452.027 63.0018 452.595C65.0031 453.431 64.1369 455.104 63.7486 456.657C62.9122 460.451 62.6135 464.782 62.7927 468.486C63.181 476.67 64.9733 484.735 65.4811 492.92C66.4668 506.571 65.3914 520.67 59.7758 533.215C54.9368 545.462 46.3341 555.797 36.2976 564.191C34.3261 565.744 32.3248 567.268 30.3235 568.791C29.517 569.418 28.2624 569.149 27.6949 568.343L27.665 568.283Z" fill="black"/>
<path d="M37.1638 577.215C36.8053 576.229 37.343 575.183 38.2988 574.795C42.4508 573.063 46.6626 571.45 50.6055 569.299C64.555 561.891 77.7876 548.3 77.459 531.602C77.4889 529.9 76.6525 527.122 79.0422 526.793C80.0279 526.704 81.0435 527.48 81.1032 528.496C83.1942 548.509 67.4524 565.296 50.5756 573.57C47.021 575.363 43.2872 576.826 39.6131 578.35C38.6573 578.738 37.5222 578.17 37.1638 577.244V577.215Z" fill="black"/>
<path d="M314.213 376.784L314.451 376.843L314.213 376.784Z" fill="black"/>
<path d="M295.305 380.816C295.305 380.816 295.245 381.115 295.215 381.234L295.155 381.294C295.185 381.115 295.245 380.965 295.275 380.786L295.305 380.816Z" fill="black"/>
<path d="M309.911 374.304H309.941V374.454H309.881V374.304H309.911Z" fill="black"/>
<path d="M301.697 388.403V389.24H301.607C301.607 388.971 301.667 388.702 301.697 388.403Z" fill="black"/>
<path d="M309.105 384.162H309.164C309.164 384.341 309.164 384.49 309.134 384.669C309.134 384.49 309.134 384.341 309.134 384.162H309.105Z" fill="black"/>
<path d="M343.874 467.59C343.934 457.971 341.574 448.682 338.318 439.691C334.883 429.595 329.357 418.393 334.853 407.998C336.018 405.818 339.334 407.52 338.228 409.761C333.927 418.035 337.87 427.056 340.738 435.091C342.112 439.063 343.486 443.036 344.71 447.039C346.712 453.64 347.578 460.54 347.668 467.411C347.697 468.456 346.891 469.352 345.875 469.382C344.86 469.412 343.934 468.605 343.904 467.59H343.874Z" fill="black"/>
<path d="M258.176 517.175C257.16 516.936 256.533 515.92 256.742 514.905C258.295 505.286 262.238 496.146 262.835 486.408C262.835 480.195 261.491 474.102 259.042 468.426C256.861 463.259 254.92 457.553 255.875 451.938C257.16 443.156 261.64 435.121 266.211 427.653C268.989 423.74 271.468 420.036 272.842 415.496C274.545 409.133 271.767 402.801 271.109 396.498C270.124 384.281 279.593 373.199 289.778 367.643C291.72 366.628 296.231 364.686 296.798 367.972C296.858 369.017 296.021 369.913 295.006 369.943C293.423 369.943 292.019 370.75 290.675 371.467C284.671 374.902 279.742 380.308 276.635 386.462C271.05 398.141 281.504 408.357 274.933 420.663C273.111 424.606 270.482 428.011 268.122 431.656C264.239 438.825 259.818 446.412 259.43 454.716C259.221 460.511 262.268 465.678 264.03 471.025C265.942 476.461 266.689 481.868 266.539 487.543C266.3 491.725 265.315 495.817 264.179 499.82C262.716 505.077 261.521 510.394 260.416 515.741C260.207 516.757 259.131 517.414 258.146 517.175H258.176Z" fill="black"/>
<path d="M261.342 528.466C260.535 527.898 260.236 526.644 260.864 525.837C263.373 522.641 265.882 519.385 267.674 515.711C273.35 504.062 274.276 495.668 270.751 483.242C270.363 480.793 273.977 480.106 274.485 482.555C278.457 496.176 276.844 506.451 270.273 518.937C268.511 522.193 266.27 525.15 263.97 528.018C263.343 528.854 262.208 529.093 261.342 528.496V528.466Z" fill="black"/>
<path d="M280.967 516.787C277.054 514.606 287.18 507.706 283.237 495.668C282.849 493.876 280.877 491.008 283.416 489.993C286.284 489.336 286.284 493.398 287.03 495.22C288.554 500.567 288.136 506.272 285.686 511.26C284.491 513.023 283.924 518.011 280.967 516.757V516.787Z" fill="black"/>
<path d="M285.477 532.498C284.641 531.931 284.402 530.706 284.999 529.87C286.493 527.839 287.956 525.807 289.211 523.926C290.854 521.297 292.288 518.519 293.572 515.681C294.737 513.501 298.023 515.203 296.947 517.444C294.677 522.701 291.571 527.51 288.106 532.05C287.478 532.887 286.313 533.126 285.477 532.528V532.498Z" fill="black"/>
<path d="M334.973 368.599C334.106 363.521 331.418 359.07 327.385 355.934C326.609 355.247 326.728 353.933 327.415 353.246C328.132 352.499 329.387 352.559 330.104 353.275C331.776 354.739 333.36 356.292 334.704 358.085C336.944 361.072 337.84 364.238 338.647 367.673C339.214 370.063 335.6 370.989 334.973 368.599Z" fill="black"/>
<path d="M143.025 306.648C142.039 306.618 141.083 305.722 141.203 304.676C141.83 298.284 142.397 291.892 143.204 285.499C144.1 278.719 145.295 271.908 147.535 265.486C148.521 263.574 148.969 258.257 152.016 259.452C152.972 259.9 153.33 261.035 152.912 261.961C148.7 271.789 147.296 282.423 146.161 292.967C145.773 296.91 145.414 300.853 144.996 304.796C144.936 305.811 144.07 306.677 143.025 306.618V306.648Z" fill="black"/>
<path d="M103.148 592.687C102.252 592.12 102.072 590.955 102.58 590.059C103.775 587.998 105 585.967 106.075 584.115C108.823 579.395 110.914 574.317 112.587 569.12C118.322 550.869 117.515 530.139 112.497 511.858C108.256 496.355 100.937 481.539 94.4853 466.574C90.9008 457.046 89.3774 443.006 93.7983 433.657C94.8736 431.476 98.249 432.97 97.2334 435.27C96.2477 437.152 95.5308 439.661 95.2918 441.692C94.545 448.353 95.023 455.134 96.7256 461.496C98.1892 466.574 100.878 471.174 102.849 476.043C105.537 483.063 108.943 489.784 111.631 496.803C114.319 504.659 117.038 512.605 118.501 520.789C119.935 529.87 120.592 539.13 120.204 548.3C119.427 561.473 115.932 574.586 109.331 586.056C108.136 588.087 106.941 590.119 105.776 592.15C105.239 593.046 103.984 593.255 103.148 592.717V592.687Z" fill="black"/>
<path d="M109.122 606.547C108.375 605.92 108.196 604.636 108.913 603.889C110.406 602.306 111.93 600.753 113.393 599.14C118.471 593.494 122.713 586.952 125.102 579.724C126.028 576.946 126.775 574.138 127.582 571.33C127.88 570.344 128.986 569.777 129.971 570.105C130.987 570.434 131.495 571.479 131.226 572.495C130.599 574.646 130.001 576.767 129.374 578.917C126.984 587.311 122.325 594.958 116.53 601.41C115.006 603.112 113.423 604.755 111.84 606.398C111.123 607.145 109.988 607.294 109.182 606.607L109.122 606.547Z" fill="black"/>
<path d="M150.224 618.973C149.208 618.794 148.491 617.809 148.67 616.793C149.029 614.732 149.328 612.641 149.566 610.55C150.044 605.621 149.895 600.633 149.118 595.764C147.087 582.143 137.857 570.255 138.305 556.156C138.395 553.706 142.159 553.796 142.099 556.305C141.86 566.133 146.639 574.915 149.895 583.906C152.105 589.939 153.42 596.302 153.599 602.754C153.778 606.816 153.45 610.849 152.822 614.851C152.554 616.494 152.583 619.302 150.224 618.973V618.973Z" fill="black"/>
<path d="M210.144 262.887C209.606 262.021 209.845 260.797 210.741 260.259C212.504 259.184 214.266 258.138 216.028 257.003C221.136 253.687 226.214 250.193 231.89 247.952C243.778 243.382 257.847 242.785 269.019 249.535C272.454 251.328 276.217 254.016 280.25 252.97C283.297 252.104 283.804 256.913 280.638 256.615C280.847 256.674 281.116 256.645 281.355 256.615C274.604 258.526 268.839 253.239 262.985 250.76C259.669 249.446 256.204 248.55 252.62 248.37C244.226 248.042 235.653 249.744 228.275 253.867C222.958 256.824 218 260.378 212.743 263.485C211.876 264.023 210.681 263.784 210.114 262.887H210.144Z" fill="black"/>
<path d="M272.215 265.038C257.787 253.09 240.641 253.329 225.617 264.052C224.063 264.978 222.152 267.667 220.359 265.785C219.702 265.008 219.792 263.754 220.598 263.126C238.55 248.938 257.936 248.311 275.769 262.947C279.622 263.515 277.203 269.578 272.215 265.068V265.038Z" fill="black"/>
<path d="M252.351 276.807C245.66 276.837 238.401 276.359 232.815 272.267C230.127 270.385 227.857 267.965 225.885 265.337C225.258 264.53 225.318 263.335 226.124 262.678C226.901 262.021 228.156 262.111 228.783 262.917C233.413 269.698 240.552 273.043 248.677 272.954C257.339 273.432 268.033 269.997 274.335 263.963C275.261 262.648 277.293 262.828 277.8 264.411C278.219 265.695 277.054 266.561 276.307 267.428C269.676 273.014 260.924 276.12 252.321 276.807H252.351Z" fill="black"/>
<path d="M256.353 287.202C249.991 287.531 243.539 286.963 237.475 285.022C235.623 284.125 231.113 283.857 231.949 280.959C232.308 280.003 233.443 279.495 234.399 279.854C236.848 280.78 239.297 281.766 241.866 282.273C250.439 283.946 259.878 284.573 267.853 280.481C269.765 279.675 272.125 276.24 274.007 278.689C274.574 279.585 274.246 280.72 273.409 281.318C271.796 282.453 270.213 283.618 268.421 284.454C264.657 286.246 260.505 287.053 256.353 287.202Z" fill="black"/>
<path d="M205.006 241.679C204.797 238.543 209.128 239.559 211.13 238.931C216.536 238.185 221.674 236.362 226.752 234.481C236.34 230.866 245.331 224.982 255.816 224.444C266.121 223.787 281.504 226.894 287.12 236.333C287.598 237.259 287.12 238.424 286.194 238.842C284.701 239.529 283.834 238.244 283.177 237.139C274.694 227.67 256.861 226.147 245.481 230.568C234.996 234.899 224.81 240.365 213.549 242.366C211.458 242.755 209.337 242.994 207.217 243.263C206.201 243.382 205.215 242.755 205.036 241.679H205.006Z" fill="black"/>
<path d="M343.844 383.295C340.737 381.204 337.511 378.666 333.688 378.217C330.432 379.024 327.953 381.623 324.906 382.967C324.339 383.415 323.681 383.534 322.935 383.325C318.902 382.16 315.228 380.099 311.345 378.516C305.072 380.816 298.441 383.086 292.108 384.938C290.913 385.476 289.3 386.193 288.434 384.699C286.971 381.384 292.586 381.055 294.617 380.219C297.843 379.323 300.95 378.247 304.056 377.112C306.595 376.395 309.075 374.872 311.703 374.693C315.706 375.947 319.29 378.307 323.353 379.472C327.146 377.769 330.492 373.797 334.943 374.514C339.124 375.32 342.709 377.859 346.114 380.249C346.95 380.846 347.07 382.101 346.473 382.907C345.815 383.743 344.65 383.863 343.814 383.266L343.844 383.295Z" fill="black"/>
<path d="M314.183 403.01C311.464 402.502 295.693 401.397 298.262 396.976C298.799 396.08 299.964 395.781 300.86 396.319C303.847 397.842 307.283 398.051 310.538 398.708C315.467 399.664 320.485 399.276 325.384 398.649C326.967 398.29 328.58 397.902 330.104 397.334C331.059 396.946 332.195 397.424 332.583 398.38C334.495 403.04 317.02 403.159 314.183 403.04V403.01Z" fill="black"/>
<path d="M288.942 385.595C286.493 385.536 284.342 385.267 281.982 384.729C280.578 384.61 279.413 383.176 280.13 381.802C281.116 379.92 283.565 381.384 284.969 381.443C287.03 382.19 291.63 380.726 291.869 383.743C291.899 385.327 290.256 385.924 288.912 385.595H288.942Z" fill="black"/>
</mask>
<g mask="url(#mask0_74_174)">
<rect x="-62" width="578" height="628" fill="url(#paint0_linear_74_174)" stroke="white" stroke-width="4"/>
</g>
<defs>
<linearGradient id="paint0_linear_74_174" x1="-62" y1="314" x2="516" y2="314" gradientUnits="userSpaceOnUse">
<stop stop-color="#FFEDCF"/>
<stop offset="0.307292" stop-color="#F2CBF6"/>
<stop offset="0.708333" stop-color="#C4E6F2"/>
<stop offset="1" stop-color="#DBF8E4"/>
</linearGradient>
</defs>
</svg>
