<svg width="48" height="23" viewBox="0 0 48 23" fill="none" xmlns="http://www.w3.org/2000/svg">
<path d="M19 9.15221L19.5 9.15221L19.5 8.15221L19 8.15221L19 9.15221ZM1 8.65221L0.646446 8.29866C0.503448 8.44165 0.46067 8.65671 0.538061 8.84355C0.61545 9.03039 0.797769 9.15221 1 9.15221L1 8.65221ZM8.71719 1.64213L9.07074 1.28857L8.36364 0.581467L8.01008 0.93502L8.71719 1.64213ZM19 8.15221L1 8.15221L1 9.15221L19 9.15221L19 8.15221ZM8.01008 0.93502L0.646446 8.29866L1.35355 9.00576L8.71719 1.64213L8.01008 0.93502Z" fill="#3E3D53"/>
<path d="M19 14.1522L19.5 14.1522L19.5 15.1522L19 15.1522L19 14.1522ZM1 14.6522L0.646447 15.0058C0.503449 14.8628 0.460671 14.6477 0.538061 14.4609C0.61545 14.2741 0.79777 14.1522 1 14.1522L1 14.6522ZM8.71719 21.6623L9.07074 22.0159L8.36364 22.723L8.01008 22.3694L8.71719 21.6623ZM19 15.1522L1 15.1522L1 14.1522L19 14.1522L19 15.1522ZM8.01008 22.3694L0.646447 15.0058L1.35355 14.2987L8.71719 21.6623L8.01008 22.3694Z" fill="#3E3D53"/>
<path d="M29 14.1522H28.5V15.1522H29V14.1522ZM47 14.6522L47.3536 15.0058C47.4966 14.8628 47.5393 14.6477 47.4619 14.4609C47.3846 14.2741 47.2022 14.1522 47 14.1522V14.6522ZM39.2828 21.6623L38.9293 22.0159L39.6364 22.723L39.9899 22.3694L39.2828 21.6623ZM29 15.1522L47 15.1522V14.1522L29 14.1522V15.1522ZM39.9899 22.3694L47.3536 15.0058L46.6464 14.2987L39.2828 21.6623L39.9899 22.3694Z" fill="#3E3D53"/>
<path d="M29 9.15221H28.5V8.15221H29V9.15221ZM47 8.65221L47.3536 8.29866C47.4966 8.44166 47.5393 8.65671 47.4619 8.84355C47.3846 9.03039 47.2022 9.15221 47 9.15221V8.65221ZM39.2828 1.64213L38.9293 1.28857L39.6364 0.581467L39.9899 0.935021L39.2828 1.64213ZM29 8.15221L47 8.15221V9.15221L29 9.15221V8.15221ZM39.9899 0.935021L47.3536 8.29866L46.6464 9.00576L39.2828 1.64213L39.9899 0.935021Z" fill="#3E3D53"/>
</svg>
