<svg width="101" height="33" viewBox="0 0 101 33" fill="none" xmlns="http://www.w3.org/2000/svg">
<path d="M88.6429 10.4117C94.7846 10.97 96.6191 15.357 96.5393 17.9093C96.3798 25.2475 90.7167 31.2297 81.4642 31.9475C91.5941 31.3094 97.4965 26.1249 97.656 18.6272C97.656 15.9153 95.5822 10.8105 88.6429 10.4117Z" fill="#3E3D53"/>
<path d="M81.4642 31.8677C89.281 31.3094 95.3429 24.9284 95.5822 17.1914C95.5822 14.8783 93.9869 11.0497 88.6429 10.5712V10.6509C93.1095 11.1295 94.625 14.32 94.625 16.4736C94.3857 23.4927 88.8821 31.0701 81.4642 31.8677Z" fill="#3E3D53"/>
<path d="M81.5424 31.7083C88.0829 31.0702 93.3472 22.6154 93.5068 15.5963C93.5068 13.682 92.3103 11.0498 88.5615 10.651V10.7308C91.5127 11.2093 92.5496 13.2034 92.5496 14.8784C92.3901 21.738 87.2853 30.9107 81.6222 31.6285L81.5424 31.7083Z" fill="#3E3D53"/>
<path d="M81.6232 31.5487C86.409 30.9106 91.3543 20.8605 91.434 14.1605C91.5138 12.4057 90.1578 10.97 88.4828 10.8902V10.97C89.6793 11.2093 90.5566 12.2462 90.3971 13.5224C90.2376 19.9832 85.4518 30.8308 81.6232 31.5487ZM78.5923 28.9165C78.672 22.6153 83.6971 11.5283 87.3661 10.8105V10.7307C82.7399 11.4486 77.6351 21.6582 77.4756 28.1189C77.3161 29.8737 78.672 31.3892 80.3471 31.4689H80.4268V31.3892C79.3101 31.3094 78.4328 30.1927 78.5923 28.9165C78.5923 28.9963 78.5923 28.9963 78.5923 28.9165Z" fill="#3E3D53"/>
<path d="M76.5973 27.4809C76.7568 20.7808 82.1009 11.4486 87.5247 10.7308V10.651C81.1437 11.3689 75.7199 19.9034 75.5604 26.6832C75.5604 28.5975 76.8366 31.3892 80.5056 31.7083V31.6285C77.5544 31.2297 76.5175 29.1559 76.5973 27.4809Z" fill="#3E3D53"/>
<path d="M74.524 25.9654C74.6835 18.9463 80.3467 11.2891 87.5253 10.5712V10.4915C79.8681 11.1296 73.8061 17.4308 73.4871 25.1677C73.4871 27.4809 75.0823 31.469 80.4264 31.788V31.7083C75.8002 31.3095 74.524 28.0392 74.524 25.9654Z" fill="#3E3D53"/>
<path d="M72.5302 24.4498C72.6897 17.1117 78.9909 11.1295 87.6053 10.4116V10.3318C77.8743 10.9699 71.573 16.1545 71.4135 23.6522C71.3337 26.4439 73.4076 31.5487 80.3469 31.9475C74.2849 31.4689 72.4504 27.0022 72.5302 24.4498ZM67.5849 10.5711C64.2349 10.0926 60.2468 12.0866 57.9336 15.5164L58.0134 15.5962C60.167 12.4854 63.8361 10.6509 66.7873 11.0497C68.7813 11.289 70.1373 12.8045 69.898 15.8355C69.1801 23.4927 62.7991 32.0272 52.5098 31.9475V32.0272C62.0015 32.426 70.2171 25.3272 71.1742 15.8355C71.3337 12.5652 69.8182 10.8902 67.5849 10.5711Z" fill="#3E3D53"/>
<path d="M68.6212 15.7558C68.8605 13.1236 67.664 11.7676 65.8295 11.5283C63.1973 11.2093 59.9271 12.8045 58.0128 15.5962L58.0925 15.676C59.8473 13.2034 62.7188 11.6879 65.0319 12.0069C66.6271 12.2462 67.664 13.4426 67.4248 15.7558C66.7867 22.2963 60.5652 31.3094 52.4294 31.8678C61.5223 31.788 67.9831 22.9344 68.6212 15.7558Z" fill="#3E3D53"/>
<path d="M52.5891 31.6285C60.0868 30.7511 65.6701 21.6582 66.3082 15.676C66.4677 13.7617 65.5904 12.7248 64.2344 12.4855C62.2403 12.1664 59.6879 13.6022 58.1725 15.7557V15.8355C59.6082 13.9212 61.682 12.8045 63.357 13.0438C64.4737 13.2033 65.1915 14.0807 65.032 15.676C64.5534 21.0201 59.4487 30.2725 52.5891 31.6285Z" fill="#3E3D53"/>
<path d="M52.6694 31.469C58.2528 30.0332 63.4373 20.382 63.8361 15.5962C63.9159 14.3998 63.4373 13.6819 62.4802 13.5224C61.1242 13.3629 59.4492 14.32 58.2528 15.9153V15.995C59.2897 14.7986 60.6456 13.9212 61.6028 14.001C62.2409 14.0807 62.6397 14.6391 62.5599 15.5962C62.3207 19.7439 57.5349 29.3951 52.6694 31.469ZM51.792 26.0451C51.2337 27.3213 50.7551 28.757 50.5158 30.113C50.5158 30.6713 50.8349 31.1499 51.3134 31.3892C51.3932 31.3892 51.473 31.469 51.5527 31.469V31.3892C51.3134 31.1499 51.2337 30.8309 51.3134 30.5118C51.6325 29.0761 52.1111 27.7201 52.7492 26.3642L63.1183 0.122314L61.6825 0.441364C61.7623 0.760414 58.9706 7.69975 58.8111 8.0188L51.792 26.0451Z" fill="#3E3D53"/>
<path d="M49.8775 25.2475C49.3191 26.5237 49.0001 27.7999 48.7608 29.1558C48.6013 30.5916 49.8775 31.3892 51.5525 31.6285V31.5487C50.356 31.3094 49.4787 30.7511 49.6382 29.6344C49.8775 28.2785 50.2763 26.9225 50.8346 25.6463L57.7739 7.85927C57.9335 7.3807 60.5656 0.999703 60.1668 0.600891L58.7311 0.919941V0.999703C58.8109 2.51519 56.9763 6.7426 56.6573 7.77951L49.8775 25.2475Z" fill="#3E3D53"/>
<path d="M54.5036 7.77948L47.963 24.4498C47.4047 25.6463 47.0857 26.8427 46.8464 28.1189C46.6868 30.113 48.3619 31.5487 51.4726 31.788C50.8345 31.7082 50.1964 31.5487 49.5583 31.3892C48.3619 31.0701 47.5642 29.9534 47.7238 28.757C47.9631 27.401 48.3619 26.1248 48.9202 24.9284L55.5405 7.85925C55.8595 6.98186 57.7738 2.67469 57.2953 1.31873L55.9393 1.55801V1.63778C56.7369 2.67469 54.9024 6.66281 54.5036 7.77948Z" fill="#3E3D53"/>
<path d="M52.1106 8.09853L46.1284 23.5724C45.6499 24.6891 45.3308 25.8058 45.0915 27.0022C44.8522 29.5546 47.0856 31.6285 51.4725 31.788C47.8035 31.5487 45.8094 29.8737 45.9689 27.5606C46.1284 26.3641 46.5273 25.1677 47.0058 23.9713L53.2273 8.01877C53.7856 6.58305 55.4606 2.99374 54.5833 1.7973L53.1475 2.11635V2.19611C54.1047 3.55208 52.7487 6.50329 52.1106 8.09853Z" fill="#3E3D53"/>
<path d="M51.3927 31.9475C46.4474 31.7082 43.9748 29.3154 44.214 26.5237C44.3736 25.407 44.6926 24.2903 45.0914 23.2534L50.8343 8.4176C51.5522 6.58306 52.9082 3.79138 51.8712 2.35565L50.595 2.59494V2.6747C51.7117 3.9509 50.6748 5.94496 49.9569 8.01878L44.214 22.6951C43.7355 23.732 43.4164 24.7689 43.3367 25.8856C43.0176 28.9963 45.7295 31.788 51.3927 31.9475ZM44.8521 13.2831C44.7724 11.289 43.5759 10.4117 42.1402 10.4117C39.5878 10.4117 37.3545 12.4057 35.9188 15.1974V14.2403C35.839 12.0867 34.3235 10.4117 31.6913 10.4117C26.108 10.4117 23.3163 14.0807 22.4389 18.2284H22.5187C23.4758 14.32 26.108 10.8105 31.133 10.8105C33.0473 10.6509 34.8021 12.0867 34.9616 14.001C34.9616 14.0807 34.9616 14.1605 34.9616 14.2403C35.1211 16.7927 34.2437 18.707 33.3664 21.0201L29.2985 31.6285H30.4151L34.483 21.0998C34.7223 20.382 35.0414 19.6641 35.2807 19.026C36.0783 17.351 37.0354 15.676 37.5938 15.676C37.9926 15.676 38.0723 15.995 38.1521 16.3141C38.1521 17.9093 37.7533 19.4248 36.9557 20.8605L37.0354 20.9403C38.3116 19.5046 39.0295 17.7498 39.1093 15.9153C39.1093 15.3569 38.87 14.9581 38.3116 14.9581C37.4342 14.9581 36.3176 16.7129 35.5199 18.6272C35.5997 18.3081 35.6795 17.9891 35.7592 17.7498C36.6366 15.8355 37.8331 14.2403 38.9497 14.2403C39.6676 14.2403 40.0664 14.7188 40.0664 15.5165C40.1462 17.4308 38.4712 20.1427 37.0354 21.0201L37.1152 21.0998C39.0295 20.2224 41.1831 17.4307 41.0236 15.1176C40.9438 14.0807 40.3855 13.5224 39.5878 13.5224C38.1521 13.5224 36.7961 15.1974 35.839 17.1915C35.839 17.0319 35.9188 16.8724 35.9188 16.7129C36.9557 14.4795 38.5509 12.8045 40.3057 12.8045C41.2628 12.8045 41.9807 13.4426 42.0605 14.7188C42.22 17.4307 39.5878 20.382 37.2747 21.2593L37.3545 21.3391C40.2259 20.6212 43.2569 17.5105 43.0974 14.32C43.0176 12.8045 42.1402 12.0867 41.0236 12.0867C39.0295 12.0867 37.2747 13.8414 36.158 16.2343V15.8355C37.4342 13.2831 39.4283 11.289 41.7414 11.289C43.0176 11.289 43.9748 12.0867 44.1343 13.8414C44.2938 17.5105 40.9438 20.5415 37.514 21.3391H37.5938C41.3426 20.6212 45.0914 17.351 44.8521 13.2831Z" fill="#3E3D53"/>
<path d="M34.0052 14.32C34.0052 12.5652 32.4897 11.1295 30.735 11.2093C30.6552 11.2093 30.6552 11.2093 30.5754 11.2093C26.1087 11.2093 23.5563 14.4795 22.679 18.2284H22.7587C23.7159 14.7986 26.029 11.6081 30.0171 11.6081C31.5326 11.4486 32.8885 12.5652 33.0481 14.0807C33.0481 14.1605 33.0481 14.2403 33.0481 14.32C33.1278 16.3938 32.1707 18.707 31.3731 20.8605L27.1457 31.6285H28.2623L32.41 20.9403C33.2076 18.7867 34.085 16.6331 34.0052 14.32Z" fill="#3E3D53"/>
<path d="M32.0102 14.3998C32.0102 13.0438 30.9733 12.0069 29.6173 12.0069C29.5375 12.0069 29.4578 12.0069 29.378 12.0069C25.8685 12.0069 23.7149 15.0379 22.8375 18.2284H22.9173C23.8744 15.2772 25.9482 12.4855 28.8197 12.4855C29.9363 12.4057 30.8935 13.2831 30.9733 14.3998C30.9733 14.4795 30.9733 14.4795 30.9733 14.5593C31.053 16.2343 29.9364 18.9462 29.1387 20.8605L24.8316 31.6285H26.028L30.2554 20.7808C30.9733 18.8665 32.0899 16.3938 32.0102 14.3998Z" fill="#3E3D53"/>
<path d="M30.0165 14.5593C30.0165 13.6819 29.2986 12.8843 28.3415 12.8843C28.2617 12.8843 28.2617 12.8843 28.1819 12.8843C25.7891 12.8843 23.8748 15.5164 22.9974 18.2284H23.0771C24.0343 15.7557 25.6295 13.2831 27.6236 13.2831C28.3415 13.2033 28.8998 13.6819 28.9796 14.3998C28.9796 14.4795 28.9796 14.5593 28.9796 14.5593C29.0593 15.9153 27.7034 18.8665 27.0653 20.5415L22.5986 31.6285H23.7152L28.1022 20.6212C28.82 18.9462 30.0165 16.0748 30.0165 14.5593Z" fill="#3E3D53"/>
<path d="M27.9431 14.6391C28.0229 14.1605 27.6241 13.6819 27.1455 13.6819C27.0657 13.6819 27.0657 13.6819 26.986 13.6819C25.5502 13.6819 24.0347 15.9153 23.1574 18.2284H23.2371C24.1943 16.1546 25.63 14.0807 26.4276 14.0807C26.7467 14.0807 26.986 14.2403 26.986 14.7188C27.0657 15.5962 25.5502 19.026 24.9121 20.4617L20.3657 31.6285H21.4823L25.949 20.5415C26.5871 18.9462 28.0229 15.7557 27.9431 14.6391ZM15.7394 24.1308L16.4573 22.6153L14.0644 10.1724C13.3466 6.66282 14.224 5.14734 16.9359 4.66876H14.3835C13.6656 5.06757 12.0704 6.10449 12.9478 10.2521L15.7394 24.1308Z" fill="#3E3D53"/>
<path d="M14.3035 27.1618L15.0213 25.6463L11.8308 10.1724C11.1927 7.14139 11.5118 5.6259 12.4689 4.74851V4.66875H10.7142C10.1558 5.78543 9.9963 6.9021 10.6344 9.93307L14.3035 27.1618ZM12.8677 30.113L13.5856 28.5975L9.59749 9.77355C8.87962 6.82234 9.03915 5.54614 9.3582 4.58899H7.84271C7.84271 6.18424 8.00224 7.77949 8.48081 9.29497L12.8677 30.113ZM6.40699 4.66875H4.65222V4.74851C5.44984 5.70566 5.68913 6.9021 6.32723 9.53426L11.113 31.7082H12.2296L7.4439 9.4545C6.96533 7.85925 6.64628 6.264 6.40699 4.66875ZM2.81768 4.66875H0.903381V4.74851C2.65815 5.46638 3.53554 6.74258 4.2534 9.93307L8.95939 31.788H10.0761L5.29032 9.69379C4.41293 5.86519 3.53554 5.14733 2.81768 4.66875ZM27.3047 4.66875C24.9916 5.94495 23.6357 8.41759 20.844 14.4795H20.9238C24.194 8.33782 26.0285 5.94495 30.256 4.66875H27.3047ZM20.6845 14.3998C23.4761 8.09854 24.1142 6.34376 25.2309 4.74851V4.66875H23.0773V4.74851C23.3166 7.22115 22.4392 9.53426 20.6845 14.3998Z" fill="#3E3D53"/>
<path d="M20.5253 14.2402C22.2801 8.65687 22.8385 6.10448 21.323 4.58899H19.2491V4.66875C21.642 5.54614 22.1206 7.93901 20.5253 14.2402ZM98.214 11.9271V13.0438H98.0544V11.9271H97.5759V11.7676H98.6925V11.9271H98.214ZM100.048 12.964V11.9271L99.6497 12.964H99.4902L99.1711 11.9271V12.964H99.0116L99.0913 11.7676H99.3306L99.6497 12.8045L100.048 11.7676H100.288L100.368 12.964H100.048Z" fill="#3E3D53"/>
</svg>
